<svg width="40" height="40" viewBox="0 0 40 40" fill="none" xmlns="http://www.w3.org/2000/svg">
<g id="Group 26">
<circle id="Ellipse 5" cx="20" cy="20" r="20" fill="#3E80CE"/>
<g id="Group 126">
<path id="Vector" d="M33.3623 13.5382C33.0409 12.3442 32.0995 11.4029 30.9057 11.0814C28.7245 10.4845 19.9997 10.4845 19.9997 10.4845C19.9997 10.4845 11.2752 10.4845 9.094 11.0587C7.92313 11.38 6.95875 12.3444 6.63743 13.5382C6.06348 15.7192 6.06348 20.2423 6.06348 20.2423C6.06348 20.2423 6.06348 24.7882 6.63743 26.9464C6.95896 28.1403 7.90017 29.0817 9.09422 29.4032C11.2982 30.0002 19.9999 30.0002 19.9999 30.0002C19.9999 30.0002 28.7245 30.0002 30.9057 29.426C32.0997 29.1047 33.0409 28.1632 33.3625 26.9694C33.9364 24.7882 33.9364 20.2653 33.9364 20.2653C33.9364 20.2653 33.9594 15.7192 33.3623 13.5382Z" fill="black"/>
<path id="Vector_2" d="M17.2218 24.421L24.477 20.2424L17.2218 16.0637V24.421Z" fill="#3E80CE"/>
</g>
</g>
</svg>
