<svg width="45" height="40" viewBox="0 0 45 40" fill="none" xmlns="http://www.w3.org/2000/svg">
<path d="M43.125 5H35V1.875C35 0.835938 34.1641 0 33.125 0H11.875C10.8359 0 10 0.835938 10 1.875V5H1.875C0.835938 5 0 5.83594 0 6.875V11.25C0 14.0391 1.75781 16.9062 4.83594 19.1172C7.29688 20.8906 10.2891 22.0156 13.4297 22.375C15.8828 26.4453 18.75 28.125 18.75 28.125V33.75H15C12.2422 33.75 10 35.3672 10 38.125V39.0625C10 39.5781 10.4219 40 10.9375 40H34.0625C34.5781 40 35 39.5781 35 39.0625V38.125C35 35.3672 32.7578 33.75 30 33.75H26.25V28.125C26.25 28.125 29.1172 26.4453 31.5703 22.375C34.7188 22.0156 37.7109 20.8906 40.1641 19.1172C43.2344 16.9062 45 14.0391 45 11.25V6.875C45 5.83594 44.1641 5 43.125 5ZM7.75781 15.0625C5.85156 13.6875 5 12.1562 5 11.25V10H10.0156C10.0938 12.5469 10.4688 14.7812 11.0156 16.7344C9.83594 16.3281 8.73438 15.7656 7.75781 15.0625ZM40 11.25C40 12.5078 38.6172 14.0703 37.2422 15.0625C36.2656 15.7656 35.1562 16.3281 33.9766 16.7344C34.5234 14.7812 34.8984 12.5469 34.9766 10H40V11.25Z" fill="#9FACB6" fill-opacity="0.2"/>
<path d="M27.918 18.02V20H18.63V18.434L23.634 13.682C24.198 13.142 24.576 12.674 24.768 12.278C24.972 11.87 25.074 11.468 25.074 11.072C25.074 10.484 24.876 10.034 24.48 9.722C24.084 9.41 23.502 9.254 22.734 9.254C21.45 9.254 20.466 9.692 19.782 10.568L18.144 9.308C18.636 8.648 19.296 8.138 20.124 7.778C20.964 7.406 21.9 7.22 22.932 7.22C24.3 7.22 25.392 7.544 26.208 8.192C27.024 8.84 27.432 9.722 27.432 10.838C27.432 11.522 27.288 12.164 27 12.764C26.712 13.364 26.16 14.048 25.344 14.816L21.978 18.02H27.918Z" fill="#9FACB6"/>
</svg>
