<svg width="20" height="24" viewBox="0 0 20 24" fill="none" xmlns="http://www.w3.org/2000/svg">
<g id="Group 220">
<g id="Group">
<g id="Group_2">
<g id="Group_3">
<path id="Vector" d="M9.99988 8.30786C9.42179 8.30786 9.01074 8.55195 9.01074 8.91163V13.8059C9.01074 14.1141 9.42183 14.4225 9.99988 14.4225C10.5522 14.4225 11.0018 14.1141 11.0018 13.8059V8.91163C11.0018 8.55195 10.5522 8.30786 9.99988 8.30786Z" fill="#3E80CE"/>
<path id="Vector_2" d="M10.0001 5.28906C9.40923 5.28906 8.94678 5.71297 8.94678 6.20111C8.94678 6.68924 9.40923 7.12602 10.0001 7.12602C10.5782 7.12602 11.0407 6.68924 11.0407 6.20111C11.0407 5.71302 10.5782 5.28906 10.0001 5.28906Z" fill="#3E80CE"/>
<path id="Vector_3" d="M10 0C4.47264 0 0 4.47036 0 9.99423C0 14.5047 2.96968 18.25 6.9735 19.5219L9.24768 22.874C9.41686 23.1234 9.69864 23.2727 10 23.2727C10.3014 23.2727 10.5831 23.1234 10.7523 22.874L13.0265 19.5219C17.0321 18.2494 20 14.5028 20 9.99423C20 4.46686 15.5238 0 10 0ZM12.2111 17.8681C12.0041 17.926 11.8243 18.0554 11.7036 18.2333L10 20.7444L8.29641 18.2333C8.17568 18.0555 7.99591 17.926 7.78886 17.8682C4.38077 16.9152 1.81818 13.781 1.81818 9.99423C1.81818 5.48591 5.48855 1.81818 10 1.81818C14.5115 1.81818 18.1818 5.48591 18.1818 9.99423C18.1818 13.7847 15.6155 16.9163 12.2111 17.8681Z" fill="#3E80CE"/>
</g>
</g>
</g>
</g>
</svg>
