<svg width="22" height="22" viewBox="0 0 22 22" fill="none" xmlns="http://www.w3.org/2000/svg">
<path d="M10.9945 0C4.91701 0 0 4.92252 0 11C0 17.0775 4.91701 22 10.9945 22C17.0721 22 22.0001 17.0775 22.0001 11C22.0001 4.92252 17.072 0 10.9945 0ZM11 2.23849C11.9185 3.55849 12.6335 5.02699 13.101 6.60001H8.89903C9.3665 5.02699 10.0815 3.55849 11 2.23849ZM2.48599 13.2C2.30449 12.496 2.19997 11.759 2.19997 11C2.19997 10.241 2.30449 9.50401 2.48599 8.79998H6.19849C6.11048 9.52046 6.04999 10.252 6.04999 11C6.04999 11.748 6.11048 12.4795 6.20401 13.2H2.48599ZM3.38251 15.4H6.62749C6.98498 16.7751 7.4855 18.0951 8.1455 19.3215C6.12151 18.6285 4.43851 17.2205 3.38251 15.4ZM6.62749 6.60001H3.38251C4.43851 4.77949 6.12151 3.37152 8.1455 2.67852C7.4855 3.90499 6.98503 5.22499 6.62749 6.60001ZM11 19.7615C10.087 18.4415 9.37201 16.973 8.89898 15.4H13.101C12.628 16.973 11.913 18.4415 11 19.7615ZM13.574 13.2H8.426C8.32148 12.4795 8.25001 11.748 8.25001 11C8.25001 10.252 8.32153 9.52052 8.426 8.79998H13.574C13.6785 9.52046 13.75 10.252 13.75 11C13.75 11.748 13.6785 12.4795 13.574 13.2ZM18.612 6.60001H15.367C15.0096 5.22499 14.509 3.90499 13.849 2.68399C15.873 3.37699 17.556 4.77949 18.612 6.60001ZM13.8545 19.316C14.5145 18.0895 15.015 16.775 15.3725 15.4H18.6175C17.556 17.2205 15.873 18.623 13.8545 19.316ZM15.796 13.2C15.8841 12.4795 15.9501 11.748 15.9501 11C15.9501 10.252 15.8896 9.52052 15.796 8.79998H19.5085C19.69 9.50396 19.8 10.241 19.8 11C19.8 11.759 19.6955 12.496 19.5085 13.2H15.796Z" fill="#3E80CE"/>
</svg>
