<svg width="40" height="40" viewBox="0 0 40 40" fill="none" xmlns="http://www.w3.org/2000/svg">
<g id="Group 24">
<circle id="Ellipse 4" cx="20" cy="20" r="20" fill="#3E80CE"/>
<path id="Vector" d="M24.6629 9.00423L22.0245 9C19.0604 9 17.1448 10.9653 17.1448 14.0071V16.3158H14.492C14.2628 16.3158 14.0771 16.5016 14.0771 16.7308V20.0758C14.0771 20.305 14.263 20.4906 14.492 20.4906H17.1448V28.931C17.1448 29.1602 17.3304 29.3458 17.5597 29.3458H21.0208C21.25 29.3458 21.4357 29.16 21.4357 28.931V20.4906H24.5374C24.7666 20.4906 24.9523 20.305 24.9523 20.0758L24.9535 16.7308C24.9535 16.6208 24.9097 16.5154 24.832 16.4375C24.7544 16.3596 24.6485 16.3158 24.5385 16.3158H21.4357V14.3587C21.4357 13.4181 21.6598 12.9406 22.8851 12.9406L24.6625 12.9399C24.8915 12.9399 25.0771 12.7541 25.0771 12.5251V9.4191C25.0771 9.19029 24.8917 9.00466 24.6629 9.00423Z" fill="black"/>
</g>
</svg>
