<svg width="57" height="38" viewBox="0 0 57 38" fill="none" xmlns="http://www.w3.org/2000/svg">
<g id="Group 385">
<path id="Vector" d="M38.5118 9.87641V23.9935C38.5118 24.63 38.2589 25.2404 37.8089 25.6905C37.3588 26.1406 36.7484 26.3934 36.1119 26.3934C35.8028 25.5264 35.2558 24.7639 34.5336 24.1932C33.8114 23.6225 32.9431 23.2667 32.0281 23.1664C31.3347 25.9402 27.957 25.4183 27.6253 23.1664C26.8988 23.2532 26.1994 23.4948 25.5742 23.8748C24.631 24.46 23.9144 25.348 23.5415 26.3934H23.4487C22.8122 26.3934 22.2018 26.1406 21.7517 25.6905C21.3017 25.2404 21.0488 24.63 21.0488 23.9935V9.67971C21.049 7.3931 21.946 5.19777 23.5472 3.56541C25.1485 1.93305 27.3261 0.993905 29.6123 0.949765C34.5061 0.857366 38.5119 4.98161 38.5118 9.87641Z" fill="#FF748F"/>
<path id="Vector_2" d="M19.1026 14.5104C17.2762 15.2727 13.7846 15.9859 11.3844 14.5986C10.0629 13.8356 9.18506 12.5392 8.61106 11.2876C7.43787 13.3422 5.3432 14.0533 2.96909 13.9938C2.59033 13.9905 2.2123 13.9601 1.83789 13.9028C1.83789 13.9028 1.91349 10.421 4.07788 8.63742C4.08628 8.63042 4.09608 8.62342 4.10448 8.61642C5.73967 7.29063 8.07626 7.29763 9.13046 7.38163C10.7349 6.96863 13.3024 6.62003 15.317 7.78343C18.4922 9.61602 19.1026 14.5104 19.1026 14.5104Z" fill="#5C586F"/>
<path id="Vector_3" d="M16.1807 24.6492C14.0268 29.9303 7.78354 29.9646 5.17675 26.08C4.16749 24.582 2.351 19.6614 2.96756 14.0232V13.9938C5.38577 13.9938 7.41548 13.3911 8.61093 11.2863C10.4403 15.2653 13.5127 16.0154 17.7459 14.9556C17.9653 18.2637 17.4301 21.5783 16.1807 24.6492Z" fill="#FFD3BC"/>
<path id="Vector_4" d="M12.8426 28.2812V30.2544C12.8422 30.7542 12.6937 31.2428 12.4159 31.6583C12.138 32.0738 11.7433 32.3977 11.2815 32.589C10.8198 32.7804 10.3117 32.8306 9.82135 32.7334C9.33104 32.6362 8.88053 32.3959 8.52669 32.0429C7.61544 31.1211 7.79211 30.2433 7.79211 28.2812C8.58709 28.6346 9.44738 28.8172 10.3174 28.8172C11.1873 28.8172 12.0476 28.6346 12.8426 28.2812Z" fill="#FFD3BC"/>
<path id="Vector_5" d="M17.7943 36.2238C17.7334 33.3895 15.725 30.9894 12.8103 30.6473C12.7173 31.2414 12.415 31.7827 11.9581 32.1737C11.5012 32.5646 10.9197 32.7794 10.3183 32.7794C9.71699 32.7794 9.13545 32.5646 8.67853 32.1737C8.22161 31.7827 7.91938 31.2414 7.82633 30.6473C7.00381 30.7439 6.21199 31.0175 5.50543 31.4495C3.85427 32.4595 2.88338 34.2897 2.8418 36.2235L17.7943 36.2238Z" fill="#78CBEC"/>
<path id="Vector_6" d="M46.1211 28.2812V30.2544C46.1211 32.5064 48.8439 33.6214 50.4369 32.0429C51.3392 31.1302 51.1716 30.2522 51.1716 28.2812C50.3766 28.6345 49.5163 28.8171 48.6463 28.8171C47.7764 28.8171 46.9161 28.6345 46.1211 28.2812Z" fill="#D89B80"/>
<path id="Vector_7" d="M56.1238 36.2238C56.0629 33.3895 54.0545 30.9894 51.1398 30.6473C51.0468 31.2414 50.7446 31.7827 50.2876 32.1737C49.8307 32.5646 49.2492 32.7794 48.6478 32.7794C48.0465 32.7794 47.465 32.5646 47.008 32.1737C46.5511 31.7827 46.2489 31.2414 46.1559 30.6473C43.2439 30.9889 41.2322 33.3863 41.1719 36.2238H56.1238Z" fill="#EFDD60"/>
<path id="Vector_8" d="M56.1441 16.4061C56.0601 19.4785 55.5817 22.1283 54.3787 24.9685C52.6707 29.1701 47.1267 30.1686 44.0663 26.7927C44.0229 26.7451 43.9795 26.6961 43.9375 26.6471C43.5087 26.1462 43.1636 25.5794 42.9155 24.9685L42.7867 24.6479C42.4274 23.7687 42.1271 22.8665 41.8879 21.9473C41.8694 21.8891 41.8549 21.8297 41.8445 21.7695C41.2902 19.5547 41.0956 17.2643 41.0732 14.9837C41.0379 12.2324 40.8772 7.6966 44.9231 6.55715C47.9779 5.69755 52.1681 5.39655 54.4921 8.01454C55.1991 8.81114 55.6037 9.77153 55.8319 10.7851C56.1638 12.2725 56.1861 14.9273 56.1441 16.4061Z" fill="#D89B80"/>
<path id="Vector_9" d="M35.0071 17.8677C32.9319 22.98 26.5358 22.4909 24.7619 18.1505C23.4663 15.0932 22.9747 11.7551 23.3339 8.45411C24.7367 8.45411 26.1727 8.23333 27.2805 7.31872C27.7001 6.96607 28.0521 6.54008 28.3193 6.06152C29.9216 9.54863 32.6576 10.2665 36.3903 9.30391C36.5845 12.2264 36.1115 15.1549 35.0071 17.8677Z" fill="#FFD3BC"/>
<path id="Vector_10" d="M32.0586 21.0781C32.0586 22.7751 32.2018 23.6019 31.4244 24.3793C31.06 24.7544 30.5752 24.9893 30.0551 25.0428C29.5349 25.0964 29.0125 24.9652 28.5793 24.6723C27.3613 23.8734 27.5964 22.6134 27.5964 21.0781C28.8106 21.6859 30.7631 21.7272 32.0586 21.0781Z" fill="#FFD3BC"/>
<path id="Vector_11" d="M36.4322 28.0959C36.3854 25.6358 34.648 23.4805 32.0293 23.1664C31.3363 25.9384 27.958 25.4166 27.6265 23.1664C26.9 23.2533 26.2006 23.4948 25.5754 23.8748C24.6322 24.46 23.9156 25.3479 23.5427 26.3934C23.3404 26.9387 23.2315 27.5143 23.2207 28.0959H36.4322Z" fill="#36D39A"/>
<path id="Vector_12" d="M19.1026 14.5104C19.1026 14.5104 14.3286 13.41 12.0005 10.3314C9.67227 7.25283 8.14207 11.5788 5.71168 9.90162C5.14722 9.51044 4.61023 9.08104 4.10449 8.61642C5.73969 7.29063 8.07627 7.29763 9.13047 7.38163C10.7349 6.96863 13.3025 6.62003 15.317 7.78343C18.4922 9.61602 19.1026 14.5104 19.1026 14.5104Z" fill="#4F4C5F"/>
<path id="Vector_13" d="M35.0071 17.8676C33.3831 21.8699 29.0052 22.5208 26.3369 20.2938C27.6949 19.9802 29.2727 19.3404 30.5915 18.0608C32.0783 16.6188 32.7153 12.9732 32.9785 9.65523C34.1655 9.76891 35.2885 9.58803 36.3903 9.30383C36.5845 12.2264 36.1115 15.1548 35.0071 17.8676Z" fill="#FFBE9C"/>
<path id="Vector_14" d="M16.1817 24.6492C14.0278 29.9303 7.78452 29.9646 5.17773 26.08C7.29313 25.8294 9.73191 25.3842 11.2551 24.5974C13.2081 23.5881 14.1909 18.8603 14.6557 15.3911C15.8163 15.3965 16.7477 15.2059 17.7469 14.9557C17.9663 18.2637 17.4311 21.5784 16.1817 24.6492Z" fill="#FFBE9C"/>
<path id="Vector_15" d="M55.8851 11.0468C55.8683 10.9586 55.8501 10.8718 55.8291 10.785H55.8319C55.8501 10.869 55.8683 10.9558 55.8851 11.0468Z" fill="#C5836A"/>
<path id="Vector_16" d="M56.1442 16.4061C56.0602 19.4791 55.5814 22.1279 54.3788 24.9684C52.6708 29.1698 47.1268 30.168 44.0664 26.7926C46.0306 26.4916 48.4946 25.7174 50.3286 23.805C52.92 21.1031 53.5528 15.6893 53.704 12.9159L54.4306 14.3271L56.1246 15.3911C56.1246 15.3911 56.1358 15.3869 56.1582 15.3799C56.1582 15.2035 56.1582 15.0285 56.1568 14.8521C56.1638 15.4317 56.1568 15.9707 56.1442 16.4061Z" fill="#C5836A"/>
<path id="Vector_17" d="M56.1581 15.3799C56.1357 15.3869 56.1245 15.3911 56.1245 15.3911L54.4305 14.3271L53.7039 12.9159L52.7533 11.0665C52.5143 10.6023 52.1521 10.2128 51.7063 9.94088C51.2605 9.66897 50.7484 9.52512 50.2263 9.52513H46.9307C46.3591 9.52495 45.8008 9.69723 45.3288 10.0194C44.8567 10.3417 44.4928 10.7988 44.2847 11.3311L43.3159 13.8035L41.0731 14.9837C41.0381 12.2327 40.8757 7.69674 44.9231 6.55715C47.9779 5.69755 52.1681 5.39655 54.4921 8.01454C55.1893 8.79854 55.5953 9.74213 55.8291 10.7851C55.8501 10.8719 55.8683 10.9587 55.8851 11.0469C56.0699 12.0451 56.1399 13.4409 56.1553 14.6771C56.1567 14.7359 56.1567 14.7947 56.1567 14.8521C56.1581 15.0285 56.1581 15.2032 56.1581 15.3799Z" fill="#4F4C5F"/>
<path id="Vector_18" d="M56.155 14.6771C56.1396 13.4409 56.0696 12.0451 55.8848 11.0469C56.1074 12.1739 56.1494 13.4073 56.155 14.6771Z" fill="#4F4C5F"/>
<path id="Vector_19" d="M19.9319 14.4084C19.9049 14.1917 19.2301 9.07809 15.7342 7.06C13.567 5.80869 10.9309 6.07356 9.05451 6.53766C7.69651 6.44834 5.30252 6.54396 3.54399 7.99296C1.11024 9.99803 1.00188 13.729 0.998241 13.8871C0.993937 14.0874 1.06137 14.2826 1.18837 14.4376C1.31537 14.5925 1.49357 14.697 1.69082 14.7321C1.70132 14.7339 1.83488 14.7574 2.05818 14.7815C1.9726 15.936 1.97873 17.0955 2.07652 18.249C2.27184 20.6722 2.85602 23.0482 3.80663 25.2857C4.41553 26.7866 5.52711 28.0292 6.95116 28.8009V29.9513C6.28541 30.1111 5.64888 30.3744 5.0648 30.7317C3.19483 31.8755 2.04936 33.921 2.00036 36.203C1.99559 36.4258 2.07951 36.6413 2.23366 36.8022C2.38782 36.9631 2.59958 37.0562 2.82236 37.061C3.04514 37.0657 3.2607 36.9818 3.4216 36.8277C3.5825 36.6735 3.67558 36.4617 3.68035 36.239C3.72431 34.181 5.00768 32.2011 7.23493 31.6103C8.42801 34.331 12.2658 34.2354 13.399 31.6103C13.8537 31.7315 14.2886 31.9179 14.6899 32.1637C16.0479 32.9949 16.9159 34.5563 16.9513 36.2385C16.9561 36.4613 17.0492 36.6731 17.2101 36.8272C17.371 36.9814 17.5866 37.0653 17.8094 37.0605C18.0321 37.0557 18.2439 36.9626 18.398 36.8017C18.5522 36.6408 18.6361 36.4252 18.6313 36.2024C18.5822 33.9204 17.4366 31.8745 15.5662 30.7305C14.9826 30.3736 14.3466 30.1105 13.6815 29.9507V28.8002C15.3126 27.9128 16.2699 26.6504 16.9575 24.9642C18.1729 21.9889 18.7379 18.7881 18.6146 15.5764C19.106 15.4189 19.408 15.2934 19.4252 15.2861C19.5937 15.2149 19.7344 15.0907 19.8258 14.9323C19.9173 14.7739 19.9545 14.5899 19.9319 14.4084ZM4.61205 9.28935C6.0287 8.12231 8.19603 8.15451 9.06403 8.22213C9.15633 8.22948 9.2492 8.22139 9.33884 8.1982C10.6326 7.86542 13.075 7.4639 14.8949 8.51459C17.0202 9.74141 17.8658 12.6558 18.1465 13.9631C16.1798 14.6022 13.6025 14.9133 11.8045 13.8742C10.8268 13.3093 10.0085 12.3216 9.37272 10.9388C9.30764 10.799 9.2054 10.6798 9.07718 10.5942C8.94896 10.5085 8.79968 10.4597 8.64562 10.4531C8.49156 10.4465 8.33865 10.4824 8.20357 10.5567C8.0685 10.6311 7.95644 10.7411 7.87963 10.8748C6.82236 12.7356 4.87454 13.2396 2.75397 13.1496C2.90223 12.1283 3.33931 10.3377 4.61205 9.28935ZM12.0007 29.455C12.0007 30.5733 11.9764 30.5217 11.9764 30.5217C11.9245 30.8671 11.7651 31.1875 11.5208 31.4373C11.2766 31.6871 10.96 31.8537 10.6158 31.9135C10.3729 31.9572 10.1234 31.947 9.88485 31.8837C9.64632 31.8204 9.42459 31.7055 9.2353 31.5472C9.04601 31.3889 8.89378 31.1909 8.78934 30.9673C8.6849 30.7437 8.63081 30.4999 8.63087 30.2531V29.4551C9.73793 29.725 10.8936 29.7249 12.0007 29.455ZM15.3996 24.3333C13.9759 27.8267 10.6323 28.6192 8.14185 27.5178C5.82752 26.4944 5.05486 24.3471 4.36957 21.7524C3.7782 19.493 3.56466 17.1514 3.73761 14.8224C5.26542 14.7499 6.805 14.3201 7.97035 13.3589C8.10699 13.2456 8.23635 13.123 8.36333 12.9957C8.40869 12.9502 8.45503 12.9062 8.49927 12.8589C10.4243 15.9355 13.3724 16.7054 16.9471 16.005C17.0017 18.8572 16.4752 21.6907 15.3996 24.3328V24.3333Z" fill="#404055"/>
<path id="Vector_20" d="M55.1403 25.2957C56.2411 22.688 56.8753 19.9947 56.9721 16.4309C57.0779 12.5389 56.9312 9.51269 55.1085 7.4603C52.1314 4.10829 46.8273 5.14947 44.6853 5.75231C43.6144 6.04466 42.6544 6.64854 41.9273 7.48732C40.24 9.45837 40.2277 12.0141 40.221 14.3278C40.2061 18.3419 40.7786 21.2771 41.0733 22.1892C42.2024 26.5383 43.6385 27.905 45.2716 28.7996V29.9511C44.6063 30.1109 43.9701 30.3741 43.3864 30.7311C41.5165 31.8749 40.3709 33.9203 40.3218 36.2027C40.3194 36.313 40.3388 36.4227 40.3788 36.5256C40.4188 36.6284 40.4787 36.7223 40.555 36.802C40.6314 36.8817 40.7226 36.9455 40.8236 36.9899C40.9246 37.0343 41.0334 37.0584 41.1437 37.0608C41.254 37.0632 41.3637 37.0438 41.4665 37.0038C41.5694 36.9637 41.6633 36.9039 41.743 36.8275C41.8227 36.7512 41.8865 36.6599 41.9309 36.5589C41.9753 36.4579 41.9994 36.3492 42.0018 36.2389C42.0459 34.182 43.3286 32.2023 45.5543 31.6106C46.6944 34.2566 50.5349 34.3183 51.7186 31.6106C53.8968 32.1885 55.2275 34.1279 55.2729 36.2393C55.2776 36.4587 55.3681 36.6676 55.525 36.8212C55.6818 36.9748 55.8925 37.0609 56.112 37.0611H56.1305C56.3532 37.0563 56.5648 36.9632 56.7189 36.8024C56.873 36.6416 56.9569 36.4261 56.9522 36.2034C56.9032 33.9214 55.7576 31.8756 53.8862 30.7316C53.3023 30.3744 52.666 30.1112 52.0005 29.9515V28.801C53.4214 28.0313 54.5311 26.7924 55.1403 25.2957ZM50.321 29.455C50.321 30.2075 50.4229 30.8521 49.835 31.445C49.8188 31.4612 49.801 31.4755 49.7841 31.4909C49.5602 31.6991 49.2839 31.8424 48.9848 31.9054C48.6856 31.9685 48.375 31.9488 48.0861 31.8486C47.7973 31.7485 47.5412 31.5715 47.3454 31.3368C47.1495 31.1021 47.0213 30.8185 46.9744 30.5164C46.941 30.3153 46.9512 30.3454 46.9512 29.4549C48.0585 29.7223 49.2136 29.7223 50.321 29.455ZM43.2031 8.58114C43.7149 7.99473 44.3892 7.57341 45.1406 7.37056C46.9783 6.85256 51.5059 5.93431 53.8526 8.57666C55.1406 10.0277 55.2223 12.1437 55.2797 13.8791L55.0602 13.7412L53.4891 10.687C53.1809 10.0844 52.7119 9.57878 52.1341 9.22621C51.5563 8.87363 50.8922 8.68783 50.2153 8.68936H46.9205C46.1796 8.68628 45.4552 8.90813 44.8432 9.32559C44.2311 9.74306 43.7601 10.3365 43.4925 11.0273L42.6385 13.2085L41.9059 13.5931C41.9265 11.7513 42.0599 9.91547 43.2031 8.58016V8.58114ZM43.6864 24.658C42.6291 22.0148 42.0005 19.5687 41.9112 15.4895L43.6969 14.55C43.8755 14.4561 44.0143 14.301 44.0879 14.1131L45.0564 11.6407C45.2019 11.2649 45.458 10.9422 45.7908 10.7151C46.1237 10.4881 46.5176 10.3674 46.9205 10.3691H50.2153C50.5834 10.3682 50.9445 10.4693 51.2587 10.661C51.5729 10.8527 51.828 11.1276 51.9956 11.4553L53.672 14.7131C53.8103 14.9825 53.8744 14.9791 55.3026 15.8766C55.3004 16.048 55.2972 16.2175 55.2929 16.3853C55.2123 19.3587 54.7549 21.8902 53.5888 24.6522C51.7852 29.0836 45.4747 29.0528 43.6864 24.657V24.658Z" fill="#404055"/>
<path id="Vector_21" d="M22.4763 27.0852C22.4149 27.4131 22.3808 27.7456 22.3745 28.0792C22.3703 28.3019 22.4548 28.5173 22.6093 28.6778C22.7639 28.8383 22.9759 28.9308 23.1986 28.9351C23.4214 28.9393 23.6368 28.8548 23.7973 28.7003C23.9578 28.5457 24.0503 28.3337 24.0545 28.1109C24.0636 27.6219 24.1557 27.138 24.3268 26.6799C24.6355 25.8154 25.2268 25.0804 26.0051 24.5939C26.3304 24.396 26.6806 24.2424 27.0465 24.1371C28.1456 26.4704 31.4809 26.4832 32.5966 24.1371C32.9612 24.242 33.3102 24.3949 33.6345 24.5918C34.4137 25.0806 35.006 25.8172 35.3162 26.6831C35.484 27.141 35.5744 27.6235 35.5838 28.1111C35.588 28.3339 35.6805 28.5458 35.841 28.7004C36.0015 28.8549 36.2169 28.9394 36.4396 28.9352C36.6624 28.931 36.8744 28.8384 37.029 28.6779C37.1835 28.5174 37.268 28.3021 37.2638 28.0793C37.2571 27.736 37.2214 27.3939 37.1568 27.0566C37.7945 26.8368 38.3478 26.4237 38.7398 25.8748C39.1318 25.3258 39.343 24.6684 39.3439 23.9938V9.8798C39.3387 8.5708 39.0743 7.27579 38.5659 6.06954C38.0575 4.86328 37.3152 3.76967 36.3819 2.85184C32.4859 -0.971548 26.5245 -0.663689 22.9478 2.97699C21.185 4.76312 20.1992 7.1734 20.2051 9.68297V23.9937C20.2059 24.6835 20.4265 25.3551 20.8349 25.911C21.2434 26.4669 21.8183 26.8782 22.4763 27.0852ZM29.4015 24.1512C28.2938 23.7858 28.4299 22.7 28.4299 22.2401C29.3459 22.4438 30.2956 22.4438 31.2116 22.2401V22.822C31.2122 23.0409 31.1611 23.2568 31.0625 23.4522C30.9639 23.6476 30.8206 23.8169 30.6442 23.9465C30.4678 24.076 30.2633 24.1621 30.0474 24.1976C29.8314 24.2332 29.6102 24.2173 29.4015 24.1512ZM25.5308 17.8256C24.7553 15.9996 24.2782 14.0608 24.1177 12.0834C24.0388 11.1511 24.0329 10.214 24.0999 9.28075C25.6172 9.19913 27.1302 8.70857 28.2009 7.60957C28.7369 8.47353 29.4718 9.19681 30.3441 9.71908C31.9058 10.6217 33.8065 10.6799 35.5833 10.3502C35.6349 14.3584 34.2805 17.9834 33.3433 19.088C31.1197 21.7068 26.8495 21.0621 25.5308 17.8256ZM21.8847 9.6831C21.8847 2.84147 30.1791 -0.881109 35.2053 4.05107C35.9797 4.81214 36.5957 5.71907 37.0177 6.7195C37.4397 7.71993 37.6593 8.79403 37.6639 9.8798V23.9938C37.6635 24.3177 37.5625 24.6334 37.3748 24.8973C37.1872 25.1613 36.9221 25.3603 36.6164 25.4671C36.2488 24.7289 35.7253 24.0795 35.0821 23.5635C34.4389 23.0475 33.6913 22.6774 32.891 22.4786V21.5944C33.5502 21.2307 34.1373 20.7496 34.6234 20.1748C36.1053 18.4289 37.0033 14.6619 37.1972 12.2368C37.2782 11.2436 37.286 10.2458 37.2205 9.25149C37.2124 9.12875 37.1774 9.0093 37.118 8.90156C37.0587 8.79383 36.9764 8.70045 36.877 8.62802C36.7775 8.55559 36.6634 8.50588 36.5427 8.4824C36.4219 8.45891 36.2975 8.46224 36.1782 8.49213C34.5388 8.90317 32.6424 9.10701 31.1844 8.26435C30.3384 7.77561 29.6292 6.91784 29.0759 5.71482C29.0113 5.57446 28.9093 5.45463 28.781 5.3685C28.6528 5.28237 28.5032 5.23329 28.3489 5.22664C27.5477 5.19375 27.6689 5.9048 26.7403 6.6748C25.8035 7.44746 24.5378 7.61769 23.3289 7.61769C23.11 7.61761 22.8998 7.70297 22.7429 7.8556C22.586 8.00823 22.4949 8.21607 22.4889 8.43487C22.4118 9.15062 22.3734 9.87 22.3737 10.5899C22.3737 11.1359 22.3972 11.6861 22.4437 12.222C22.6172 14.3729 23.1355 16.4819 23.9789 18.4682C24.5175 19.7968 25.4958 20.9002 26.7502 21.5941V22.4781C25.9452 22.6781 25.1936 23.0515 24.5477 23.572C23.9019 24.0925 23.3774 24.7476 23.0108 25.4917C22.6863 25.3974 22.4012 25.2004 22.1981 24.9304C21.995 24.6603 21.885 24.3316 21.8845 23.9937L21.8847 9.6831Z" fill="#404055"/>
</g>
</svg>
