<svg width="40" height="40" viewBox="0 0 40 40" fill="none" xmlns="http://www.w3.org/2000/svg">
<g id="Group 28">
<circle id="Ellipse 5" cx="20" cy="20" r="20" fill="#3E80CE"/>
<g id="Group">
<path id="Vector" d="M29.9892 14.3081C28.687 14.3081 27.4855 13.8767 26.5207 13.1489C25.4141 12.3146 24.6191 11.0909 24.3383 9.68035C24.2688 9.33184 24.2313 8.9722 24.2278 8.60364H20.5079V18.7682L20.5034 24.3358C20.5034 25.8243 19.5341 27.0864 18.1905 27.5303C17.8005 27.6591 17.3794 27.7201 16.9408 27.696C16.3811 27.6653 15.8565 27.4964 15.4006 27.2237C14.4304 26.6434 13.7727 25.5908 13.7548 24.3866C13.7268 22.5046 15.2482 20.9702 17.1289 20.9702C17.5001 20.9702 17.8567 21.0308 18.1905 21.1409V18.3626V17.3639C17.8384 17.3118 17.4801 17.2846 17.1178 17.2846C15.0593 17.2846 13.134 18.1403 11.7578 19.6818C10.7177 20.8467 10.0938 22.333 9.99749 23.8915C9.87137 25.9388 10.6205 27.885 12.0734 29.3209C12.2868 29.5317 12.511 29.7274 12.7454 29.9078C13.991 30.8665 15.5138 31.3861 17.1178 31.3861C17.4801 31.3861 17.8384 31.3594 18.1905 31.3072C19.6888 31.0853 21.0712 30.3994 22.1622 29.3209C23.5027 27.996 24.2434 26.237 24.2514 24.3648L24.2322 16.0506C24.8718 16.5439 25.571 16.9521 26.3215 17.269C27.4887 17.7615 28.7262 18.011 29.9999 18.0106V15.3094V14.3072C30.0008 14.3081 29.9901 14.3081 29.9892 14.3081Z" fill="black"/>
</g>
</g>
</svg>
