<svg width="1135" height="220" viewBox="0 0 1135 220" fill="none" xmlns="http://www.w3.org/2000/svg">
<path d="M1065.4 19.6628C1065.4 19.6628 1093.69 51.2359 1087.74 87.3033C1082.35 119.888 1034.42 105.73 1034.42 105.73L1011.52 100.337C1011.52 100.337 1003.55 81.2359 1015.23 62.8089C1026.9 44.1572 1065.4 19.6628 1065.4 19.6628Z" fill="black"/>
<path d="M1077.41 207.303C1077.41 207.303 1075.84 95.618 1069.78 89.1011C1063.83 82.5843 1027.24 75.618 1006.24 91.3483C993.111 101.236 989.07 146.292 993.111 174.719C996.591 199.326 997.938 208.764 997.938 208.764L1077.41 207.303Z" fill="#465884"/>
<path d="M957.751 76.7415C957.751 76.7415 955.281 65.6179 949.332 60.5618C943.382 55.5056 936.31 52.2471 937.545 56.7415C938.78 61.2359 942.933 68.6516 942.933 68.6516L932.157 65.7303C932.157 65.7303 925.085 62.4719 920.034 61.1236C914.87 59.7752 913.298 63.4831 913.298 63.4831C913.298 63.4831 908.135 62.1348 906.002 63.5955C903.757 65.0561 905.328 68.3146 905.328 68.3146C905.328 68.3146 898.032 68.4269 900.726 74.0449C903.532 79.6629 918.013 89.1011 925.085 92.3595C932.157 95.6179 947.985 97.7528 947.985 97.7528C947.985 97.7528 962.129 100.899 957.751 76.7415Z" fill="#F48462"/>
<path d="M918.687 79.101C918.462 79.101 918.125 78.9887 918.013 78.7639C917.789 78.4269 917.901 77.9774 918.35 77.7527L936.423 67.9774C936.76 67.7527 937.208 67.9774 937.433 68.3145C937.658 68.6516 937.545 69.101 937.096 69.3257L919.023 79.101C918.911 79.101 918.799 79.101 918.687 79.101Z" fill="black"/>
<path d="M953.934 84.9437C953.822 84.9437 953.822 84.9437 953.71 84.9437C947.76 83.3707 943.944 80.8988 942.372 77.4157C940.576 73.5954 942.148 70.1123 942.26 69.9999C942.485 69.6628 942.821 69.4381 943.27 69.6628C943.607 69.8876 943.831 70.2246 943.607 70.6741C943.607 70.6741 942.26 73.7078 943.719 76.8539C945.179 79.8876 948.658 82.1348 954.159 83.5954C954.496 83.7078 954.832 84.0449 954.72 84.4943C954.496 84.719 954.271 84.9437 953.934 84.9437Z" fill="black"/>
<path d="M969.425 123.82L959.884 87.5281L921.044 94.382C921.044 94.382 913.074 176.629 938.78 188.427C962.466 199.326 980.651 161.573 980.651 161.573L969.425 123.82Z" fill="#465884"/>
<path d="M412.982 36.8538C408.829 36.4044 404.563 37.4156 401.308 39.8875C398.389 42.0224 395.583 45.6179 394.797 51.5729C392.664 65.6179 397.828 69.4381 389.97 74.9437C382.113 80.4493 377.51 77.3033 372.683 90.4493C367.856 103.595 376.163 121.011 392.328 117.079C408.492 113.146 447.557 101.461 447.557 101.461L448.006 43.2583L428.249 38.4269L412.982 36.8538Z" fill="black"/>
<path d="M453.282 88.5393C453.282 88.5393 470.905 91.0112 482.355 111.798C493.805 132.584 503.347 189.888 501.551 191.685C499.755 193.483 461.701 198.876 430.157 198.876C398.614 198.876 388.736 197.64 385.705 195.843C382.674 194.045 383.46 96.2921 400.971 88.4269C418.371 80.7865 434.535 82.3595 453.282 88.5393Z" fill="#6876AA"/>
<path d="M457.66 89.5505C457.66 89.5505 485.386 133.034 490.774 161.124C496.275 189.213 497.285 209.101 497.285 209.101L396.593 209.775L394.797 133.258L405.461 87.9775L434.76 84.0449L457.66 89.5505Z" fill="#F7B369"/>
<path d="M457.66 89.5505C457.66 89.5505 471.803 141.91 474.722 160.112C477.753 178.427 478.314 195.843 478.314 195.843L496.836 193.034L489.764 150.112L464.507 95.1685L457.66 89.5505Z" fill="#6876AA"/>
<path d="M464.395 47.4157C464.395 47.4157 471.916 34.4943 471.13 29.1011C469.334 15.7303 450.251 6.85387 431.504 13.5954C412.87 20.337 409.503 43.9325 412.758 54.0449C420.952 80.1123 443.628 70.4494 443.628 70.4494C443.628 70.4494 479.1 62.9213 464.395 47.4157Z" fill="black"/>
<path d="M458.782 75.5055V75.955L457.996 85.1685L457.323 92.3595C457.323 92.3595 457.884 94.0449 449.465 93.146C438.24 91.7977 434.872 86.8539 434.872 86.8539L435.209 69.8876L438.576 70.6741L458.782 75.5055Z" fill="#F48462"/>
<path d="M458.782 76.0674L457.996 85.2809C452.608 84.382 442.73 81.573 439.025 72.6966C438.801 72.0225 438.576 71.3483 438.576 70.7865L458.782 75.8427V76.0674Z" fill="black"/>
<path d="M464.395 32.0225C464.395 32.0225 473.712 56.5168 469.334 69.7753C464.956 83.0337 452.72 80.4494 445.536 77.4157C438.352 74.4944 435.096 69.7753 435.096 69.7753C435.096 69.7753 428.137 71.7977 423.871 65.1685C419.605 58.5393 422.748 51.3483 426.677 49.8876C430.719 48.4269 435.209 51.4607 435.209 51.4607L431.841 44.2696C431.953 44.4944 448.904 9.6629 464.395 32.0225Z" fill="#F48462"/>
<path d="M457.66 89.5505C457.66 89.5505 482.58 90.5618 503.459 109.663C524.338 128.764 554.647 175.393 542.411 192.022C524.451 216.404 485.947 208.989 485.947 208.989L484.151 169.326L473.712 111.685L457.66 89.5505Z" fill="#6876AA"/>
<path d="M461.925 62.4719C461.813 62.4719 461.701 62.4719 461.701 62.4719C461.364 62.3595 461.139 61.9101 461.252 61.573C462.823 57.191 459.792 52.2472 459.792 52.2472C459.568 51.9101 459.68 51.4606 460.017 51.2359C460.354 51.0112 460.803 51.1236 461.027 51.4607C461.139 51.6854 464.507 57.0786 462.599 62.1348C462.486 62.2472 462.262 62.4719 461.925 62.4719Z" fill="black"/>
<path d="M433.749 62.809C433.525 62.809 433.3 62.6966 433.188 62.5843L427.014 55.2809C426.79 54.9438 426.79 54.4944 427.126 54.2697C427.463 54.0449 427.912 54.0449 428.137 54.382L434.311 61.6854C434.535 62.0225 434.535 62.4719 434.198 62.6966C434.086 62.6966 433.862 62.809 433.749 62.809Z" fill="black"/>
<path d="M426.902 60.5617C426.565 60.5617 426.228 60.2246 426.228 59.8876C426.228 59.4381 426.453 59.101 426.902 59.101L431.392 58.6516C431.841 58.6516 432.178 58.8763 432.178 59.3258C432.178 59.7752 431.953 60.1123 431.504 60.1123L426.902 60.5617C427.014 60.5617 426.902 60.5617 426.902 60.5617Z" fill="black"/>
<path d="M454.18 69.4381C453.506 69.4381 452.72 69.3258 452.047 68.8763C449.016 67.1909 448.23 63.8201 448.23 63.5954C448.118 63.3707 448.23 63.0336 448.455 62.9213C448.679 62.6966 448.904 62.6966 449.24 62.8089L458.445 66.4044C458.67 66.5168 458.894 66.7415 458.894 66.9662C458.894 67.1909 458.894 67.4157 458.67 67.6404C458.445 67.7527 456.537 69.4381 454.18 69.4381ZM450.138 64.719C450.588 65.6179 451.373 66.8539 452.72 67.528C454.067 68.3145 455.527 67.7527 456.537 67.1909L450.138 64.719Z" fill="black"/>
<path d="M447.781 44.1572C447.669 44.1572 447.557 44.1572 447.444 44.0449C447.108 43.8202 446.995 43.3707 447.22 43.0336C449.016 39.9999 452.945 41.0112 453.057 41.0112C453.394 41.1235 453.618 41.573 453.618 41.91C453.506 42.2471 453.057 42.5842 452.72 42.4718C452.608 42.4718 449.689 41.6853 448.455 43.8202C448.342 44.0449 448.118 44.1572 447.781 44.1572Z" fill="black"/>
<path d="M466.415 42.3596C466.191 42.3596 466.079 42.2472 465.854 42.1348C465.854 42.1348 464.395 40.6742 462.935 40.7865C462.374 40.7865 461.813 41.1236 461.364 41.6854C461.139 42.0225 460.69 42.0225 460.354 41.7978C460.017 41.573 460.017 41.1236 460.241 40.7865C460.915 39.8877 461.813 39.3259 462.823 39.3259C464.844 39.2135 466.752 41.0112 466.864 41.0112C467.201 41.3483 467.201 41.7978 466.864 42.0225C466.864 42.2472 466.64 42.3596 466.415 42.3596Z" fill="black"/>
<path d="M464.844 52.5842C464.507 52.5842 464.17 52.2472 464.17 51.9101L463.721 47.4157C463.721 47.191 463.721 46.9663 463.946 46.8539L465.742 44.8314C465.966 44.4943 466.528 44.4943 466.752 44.8314C467.089 45.0561 467.089 45.6179 466.752 45.8427L465.181 47.6404L465.517 51.7977C465.63 52.2471 465.293 52.5842 464.844 52.5842C464.956 52.5842 464.844 52.5842 464.844 52.5842Z" fill="black"/>
<path d="M451.598 52.9213C451.261 52.9213 450.924 52.5842 450.924 52.2471L450.587 47.7528C450.587 47.528 450.7 47.3033 450.812 47.191L453.394 44.8314C453.731 44.6067 454.18 44.6067 454.404 44.9438C454.629 45.2809 454.629 45.7303 454.292 45.955L451.935 48.0898L452.271 52.2471C452.271 52.5842 452.047 52.9213 451.598 52.9213Z" fill="black"/>
<path d="M422.636 28.6517C422.636 28.6517 425.218 -0.11239 405.574 3.03368C384.807 6.40446 404.451 39.5505 417.697 37.7528C423.647 36.8539 422.636 28.6517 422.636 28.6517Z" fill="black"/>
<path d="M453.394 94.4943C448.904 94.4943 441.607 93.5954 435.433 88.9887C435.096 88.764 435.096 88.3146 435.321 87.9775C435.545 87.6404 435.995 87.6404 436.331 87.8651C445.424 94.719 457.435 92.8089 457.547 92.8089C457.884 92.6966 458.333 93.0336 458.333 93.3707C458.445 93.8202 458.109 94.1573 457.772 94.1573C457.659 94.2696 455.863 94.4943 453.394 94.4943Z" fill="#465884"/>
<path d="M434.872 83.9325C434.872 83.9325 460.69 197.416 455.751 197.977C450.812 198.539 411.523 200.449 411.523 200.449L416.126 84.2696L434.872 83.9325Z" fill="#6876AA"/>
<path d="M412.982 37.528C412.533 37.528 412.197 37.1909 412.309 36.7415C413.319 23.3707 421.963 18.4269 422.412 18.3145C422.748 18.0898 423.198 18.2021 423.422 18.6516C423.647 18.9887 423.534 19.4381 423.085 19.6628C422.973 19.6628 414.666 24.3819 413.768 36.9662C413.656 37.3033 413.319 37.528 412.982 37.528Z" fill="#F7B369"/>
<path d="M451.935 22.1348C451.935 22.1348 454.965 25.8426 455.527 32.0224C456.088 38.2022 456.088 38.2022 456.088 38.2022L430.719 46.2921L429.933 33.9325L451.935 22.1348Z" fill="black"/>
<path d="M454.18 26.1797C454.18 26.1797 456.425 28.0898 457.547 30.6741C458.67 33.2584 459.792 38.4269 459.792 38.4269L467.201 37.4157L466.079 24.4943L455.976 18.6516L449.914 19.4381L451.036 27.7527L454.18 26.1797Z" fill="black"/>
<path d="M608.529 84.1572C608.529 84.1572 637.154 94.8314 664.095 96.4044C687.443 97.8651 718.987 86.8539 718.987 86.8539L737.733 127.416C737.733 127.416 676.891 176.292 639.286 155.843C590.568 129.326 608.529 84.1572 608.529 84.1572Z" fill="#68B6D8"/>
<path d="M671.84 114.157C671.054 114.157 670.381 113.82 669.82 113.258C666.676 110 668.136 98.4269 668.248 97.191C668.248 96.8539 668.472 96.6292 668.809 96.5168C669.146 96.4045 669.483 96.6292 669.595 96.8539C670.269 98.0899 676.106 109.101 674.197 112.809C673.748 113.595 673.075 114.045 672.177 114.157C672.065 114.157 671.952 114.157 671.84 114.157ZM669.483 99.7753C669.146 103.933 669.034 110.337 670.942 112.247C671.279 112.584 671.616 112.697 672.177 112.697C672.626 112.697 672.85 112.472 673.075 112.135C673.973 110.225 671.616 104.157 669.483 99.7753Z" fill="#F7B369"/>
<path d="M721.681 90.5618C721.681 90.5618 727.069 79.1011 734.702 75.0562C742.336 71.0112 750.755 69.1011 748.285 73.7079C745.928 78.3146 739.754 85.3932 739.754 85.3932L752.102 84.8315C752.102 84.8315 760.521 83.0337 766.358 82.6966C772.195 82.4719 773.093 86.8539 773.093 86.8539C773.093 86.8539 778.93 86.6292 780.951 88.764C782.972 90.8989 780.502 94.0449 780.502 94.0449C780.502 94.0449 788.36 95.955 784.094 101.348C779.716 106.742 761.755 113.483 753.336 115.393C744.917 117.191 727.294 115.73 727.294 115.73C727.294 115.73 711.129 115.73 721.681 90.5618Z" fill="#F48462"/>
<path d="M763.888 102.809C763.664 102.809 763.552 102.697 763.439 102.584L745.591 87.191C745.254 86.9663 745.254 86.5168 745.479 86.1797C745.703 85.8427 746.152 85.8427 746.489 86.0674L764.45 101.461C764.786 101.685 764.786 102.135 764.562 102.472C764.337 102.697 764.113 102.809 763.888 102.809Z" fill="black"/>
<path d="M723.028 100.562C722.691 100.562 722.354 100.225 722.242 99.8876C722.242 99.4381 722.579 99.101 722.916 99.101C729.426 98.8763 733.917 97.1909 736.274 94.1572C738.744 90.8988 737.958 87.1909 737.958 87.1909C737.845 86.7415 738.07 86.4044 738.519 86.2921C738.968 86.1797 739.305 86.4044 739.417 86.8539C739.417 87.0786 740.315 91.2359 737.396 95.0561C734.927 98.4269 729.988 100.337 723.028 100.562C723.14 100.562 723.028 100.562 723.028 100.562Z" fill="black"/>
<path d="M729.875 131.348L707.649 91.4607C707.088 90.4494 707.425 89.1011 708.435 88.5393L717.864 83.2584C718.874 82.6966 720.222 83.0337 720.783 84.045L743.009 123.933C743.57 124.944 743.234 126.292 742.223 126.854L732.794 132.135C731.671 132.697 730.437 132.36 729.875 131.348Z" fill="#F7B369"/>
<path d="M809.351 82.2471C809.351 82.2471 812.158 82.9213 812.831 84.0449C813.505 85.1685 813.28 89.3258 813.28 89.3258C813.28 89.3258 842.466 92.1348 871.877 125.506C901.624 159.213 905.553 179.438 895.675 194.045C882.653 213.483 837.864 208.202 837.864 208.202C837.864 208.202 827.087 209.775 788.696 209.213C753.224 208.652 733.355 208.202 733.355 208.202C733.355 208.202 672.177 222.921 677.116 182.472C683.627 128.764 747.948 94.2696 760.409 89.3258C771.634 84.9438 781.961 84.8314 781.961 84.8314C781.961 84.8314 782.523 82.8089 783.084 82.3595C786.564 80.5617 809.351 82.2471 809.351 82.2471Z" fill="#A37B90"/>
<path d="M287.033 84.382C287.033 84.382 263.797 82.9213 250.551 94.8314C237.305 106.742 230.457 207.303 230.457 207.303C230.457 207.303 267.838 207.977 292.085 208.652C309.821 209.101 341.477 207.303 341.477 207.303C341.477 207.303 331.486 104.27 325.649 91.7977C319.924 79.1011 287.033 84.382 287.033 84.382Z" fill="#F7B369"/>
<path d="M591.466 14.4944C591.466 14.4944 563.627 6.6292 551.616 34.1573C539.605 61.6854 549.147 137.416 549.147 137.416L611.111 125.506L603.477 64.4944L591.466 14.4944Z" fill="black"/>
<path d="M578.22 79.3258C578.22 79.3258 541.401 88.9887 535.452 107.64C529.502 126.18 555.208 204.27 563.29 207.528C571.261 210.786 639.511 207.303 639.511 207.303C639.511 207.303 644.113 152.921 643.103 146.292C642.093 139.663 638.052 113.146 630.755 101.348C623.459 89.5505 603.702 80.5618 595.395 80C587.313 79.3258 578.22 79.3258 578.22 79.3258Z" fill="#68B6D8"/>
<path d="M572.383 64.382L572.832 84.0449C572.832 84.0449 576.536 89.6629 587.986 90.337C596.63 90.8988 599.549 88.8763 599.549 88.8763L598.089 78.8763L596.742 69.2134L575.863 65.0561L572.383 64.382Z" fill="#F48462"/>
<path d="M575.975 65.0562C576.087 65.618 576.2 66.1797 576.536 66.9663C581.139 76.7415 593.262 78.5393 598.201 78.8764L596.854 69.2135L575.975 65.0562Z" fill="black"/>
<path d="M600.222 24.1573C600.222 24.1573 611.111 48.6517 607.294 62.4719C603.477 76.2921 591.017 74.1573 583.496 71.573C575.975 68.9888 572.495 64.382 572.495 64.382C572.495 64.382 565.536 66.8539 560.821 60.3371C556.106 53.8202 558.913 46.2921 562.954 44.6067C566.995 42.809 571.71 45.7303 571.71 45.7303L567.893 38.6517C567.781 38.5393 583.272 2.24718 600.222 24.1573Z" fill="#F48462"/>
<path d="M571.597 45.618C571.597 45.618 582.149 47.7528 589.446 36.0674C596.854 24.382 596.181 19.5505 596.181 19.5505L603.477 31.6854C603.477 31.6854 605.161 23.2584 601.794 17.8651C598.426 12.4719 594.946 13.5955 594.946 13.5955L571.71 19.3258L565.536 37.9775L571.597 45.618Z" fill="black"/>
<path d="M555.208 89.1011C555.208 89.1011 500.653 115.955 506.827 168.09C512.888 220.225 578.333 212.921 602.804 207.191C627.275 201.573 608.192 164.27 608.192 164.27C608.192 164.27 598.987 167.528 575.189 163.483C551.504 159.551 555.208 89.1011 555.208 89.1011Z" fill="#68B6D8"/>
<path d="M556.892 161.461C556.78 161.461 556.78 161.461 556.892 161.461C551.504 160.786 534.217 158.539 533.543 154.831C533.319 153.371 535.002 152.472 535.676 152.247C544.993 147.64 557.004 159.775 557.453 160.225C557.678 160.449 557.678 160.786 557.566 161.011C557.341 161.348 557.117 161.461 556.892 161.461ZM540.166 152.697C538.819 152.697 537.472 152.921 536.237 153.595C535.115 154.157 534.89 154.494 535.002 154.607C535.339 156.292 545.105 158.539 554.759 159.775C551.841 157.303 545.779 152.697 540.166 152.697Z" fill="#F7B369"/>
<path d="M602.804 32.4719C602.692 32.4719 602.692 32.4719 602.579 32.4719L600.334 31.9101C599.998 31.7977 599.661 31.4606 599.773 31.0112C599.885 30.5618 600.222 30.337 600.671 30.4494L602.916 31.0112C603.253 31.1236 603.59 31.4606 603.477 31.9101C603.477 32.2472 603.141 32.4719 602.804 32.4719Z" fill="black"/>
<path d="M589.221 34.7191C588.884 34.7191 588.66 34.6068 588.548 34.2697C588.435 33.9326 588.548 33.4832 588.884 33.2584L594.16 31.0113C594.497 30.8989 594.946 31.0113 595.171 31.3483C595.283 31.6854 595.171 32.1348 594.834 32.3596L589.558 34.6068C589.446 34.7191 589.333 34.7191 589.221 34.7191Z" fill="black"/>
<path d="M600.11 53.8202C599.885 53.8202 599.773 53.7079 599.549 53.5955C599.212 53.3708 599.212 52.809 599.549 52.5843C602.916 48.9887 598.65 42.5843 598.65 42.4719C598.426 42.1348 598.538 41.6854 598.875 41.4607C599.212 41.2359 599.661 41.3483 599.885 41.6854C600.11 42.0225 604.824 49.2135 600.671 53.5955C600.559 53.7079 600.334 53.8202 600.11 53.8202Z" fill="black"/>
<path d="M571.71 56.9662C571.485 56.9662 571.373 56.8538 571.261 56.7415L562.954 49.5505C562.617 49.3258 562.617 48.8763 562.841 48.5392C563.066 48.2022 563.515 48.2022 563.852 48.4269L572.159 55.6179C572.495 55.8426 572.495 56.2921 572.271 56.6291C572.046 56.8538 571.822 56.9662 571.71 56.9662Z" fill="black"/>
<path d="M562.729 57.3034C562.505 57.3034 562.168 57.191 562.056 56.8539C561.831 56.5168 562.056 56.0674 562.392 55.8427L568.454 53.0337C568.791 52.809 569.24 53.0337 569.464 53.3708C569.689 53.7079 569.464 54.1573 569.128 54.382L563.066 57.191C562.954 57.191 562.841 57.3034 562.729 57.3034Z" fill="black"/>
<path d="M572.271 81.3482C572.271 81.3482 569.914 81.5729 569.689 83.0336C569.464 84.4943 578.445 109.438 585.517 111.685C592.589 113.932 598.089 91.91 598.426 92.2471C598.763 92.5842 611.335 102.022 612.795 101.685C614.142 101.348 608.304 90.5617 604.6 86.292C600.896 82.0224 598.538 80.4493 598.538 80.4493C598.538 80.4493 598.987 85.6179 598.987 86.7415C598.987 87.8651 594.609 90.2246 586.864 88.9887C575.638 87.3033 572.271 81.3482 572.271 81.3482Z" fill="#F7B369"/>
<path d="M590.456 45.2808C590.119 45.2808 589.782 44.9438 589.782 44.6067L589.333 39.5505C589.333 39.3258 589.446 39.1011 589.558 38.8763L592.364 36.6291C592.701 36.4044 593.15 36.4044 593.375 36.7415C593.599 37.0786 593.599 37.528 593.262 37.7527L590.68 39.7752L591.129 44.382C591.242 44.9438 591.017 45.2808 590.456 45.2808C590.568 45.2808 590.568 45.2808 590.456 45.2808Z" fill="black"/>
<path d="M603.59 43.8202C603.253 43.8202 602.916 43.4831 602.916 43.146L602.467 38.0898C602.467 37.8651 602.579 37.6404 602.692 37.4157L604.824 35.6179C605.161 35.3932 605.61 35.3932 605.835 35.7303C606.059 36.0674 606.059 36.5168 605.722 36.7415L603.814 38.3145L604.263 42.9213C604.375 43.3707 604.039 43.8202 603.59 43.8202C603.702 43.8202 603.59 43.8202 603.59 43.8202Z" fill="black"/>
<path d="M641.644 153.82C641.644 153.708 641.644 153.82 641.644 153.82C641.195 153.82 640.858 153.371 640.97 153.034C644.562 120.112 629.969 109.888 629.857 109.775C629.52 109.551 629.408 109.101 629.633 108.764C629.857 108.427 630.306 108.315 630.643 108.539C631.316 108.989 646.134 119.326 642.43 153.146C642.317 153.483 641.981 153.82 641.644 153.82Z" fill="#F7B369"/>
<path d="M591.017 164.157L556.78 161.461C556.331 161.461 556.106 161.124 556.106 160.674C556.106 160.225 556.443 160 556.892 160L591.017 162.697C591.466 162.697 591.691 163.034 591.691 163.483C591.691 163.933 591.354 164.157 591.017 164.157Z" fill="#F7B369"/>
<path d="M593.375 63.3707C592.926 63.3707 592.477 63.2584 592.028 63.146C588.435 62.0224 588.548 57.8651 588.548 57.6404C588.548 57.4157 588.66 57.1909 588.884 57.0786C589.109 56.9662 589.333 56.8539 589.558 56.9662L597.752 59.4381C597.977 59.5505 598.202 59.6628 598.202 59.8876C598.314 60.1123 598.201 60.337 598.089 60.5617C597.977 60.6741 596.181 63.3707 593.375 63.3707ZM590.119 58.764C590.344 59.7752 590.905 61.3482 592.477 61.7977C594.048 62.3595 595.395 61.3482 596.181 60.5617L590.119 58.764Z" fill="black"/>
<path d="M323.965 89.2134C323.965 89.2134 336.874 95.8426 353.825 127.528C369.316 156.517 376.388 188.315 361.346 197.865C323.067 222.135 274.573 186.404 274.573 186.404L323.965 89.2134Z" fill="#F7B369"/>
<path d="M293.207 34.382C293.207 34.382 312.066 37.191 314.872 19.2134C318.016 -4.20883e-05 300.279 -3.59555 291.973 3.37074C283.666 10.337 284.227 18.5393 284.227 18.5393C284.227 18.5393 279.4 13.2584 273.114 18.5393C268.399 22.3595 269.971 29.6629 269.971 29.6629C269.971 29.6629 260.317 28.3146 260.317 36.8539C260.317 45.5056 266.042 50.4494 266.042 50.4494L293.207 34.382Z" fill="black"/>
<path d="M272.553 65.955L272.44 86.292C272.44 86.292 276.033 92.1347 287.931 93.146C296.8 93.9325 299.83 91.91 299.83 91.91L298.596 81.5729L297.361 71.5729L276.145 66.8538L272.553 65.955Z" fill="#F48462"/>
<path d="M276.145 66.8539C276.145 67.4157 276.369 68.0898 276.706 68.764C281.196 78.8764 293.656 81.1235 298.708 81.573L297.473 71.573L276.145 66.8539Z" fill="black"/>
<path d="M302.3 25.3932C302.3 25.3932 312.852 50.8988 308.586 64.9437C304.321 79.1011 291.411 76.6291 283.778 73.7078C276.145 70.7864 272.553 65.955 272.553 65.955C272.553 65.955 265.256 68.3145 260.542 61.4606C255.827 54.6067 258.97 46.9662 263.123 45.2808C267.277 43.5954 272.104 46.6291 272.104 46.6291L268.399 39.2134C268.512 39.3258 285.35 2.24713 302.3 25.3932Z" fill="#F48462"/>
<path d="M271.43 57.6403C271.318 57.6403 271.093 57.6404 270.981 57.528L261.889 50.8988C261.552 50.6741 261.44 50.2246 261.776 49.8875C262.001 49.5505 262.45 49.4381 262.787 49.7752L271.879 56.4044C272.216 56.6291 272.328 57.0786 271.991 57.4156C271.879 57.528 271.655 57.6403 271.43 57.6403Z" fill="black"/>
<path d="M263.123 57.4157C262.787 57.4157 262.45 57.191 262.45 56.8539C262.338 56.5169 262.562 56.0674 263.011 55.9551L269.073 54.382C269.41 54.2697 269.859 54.4944 269.971 54.9438C270.083 55.2809 269.859 55.7303 269.41 55.8427L263.348 57.4157C263.236 57.4157 263.123 57.4157 263.123 57.4157Z" fill="black"/>
<path d="M285.237 35.955C285.125 35.955 284.901 35.955 284.788 35.8427C284.452 35.6179 284.452 35.1685 284.676 34.8314C288.044 30.4494 292.534 32.809 292.534 32.809C292.871 33.0337 292.983 33.4831 292.871 33.8202C292.646 34.1573 292.197 34.2696 291.86 34.1573C291.748 34.0449 288.493 32.3595 285.799 35.8427C285.686 35.8427 285.462 35.955 285.237 35.955Z" fill="black"/>
<path d="M306.229 37.0786C306.117 37.0786 305.892 37.0786 305.78 36.8539C303.535 35.0561 301.29 36.4044 301.177 36.4044C300.841 36.6291 300.392 36.5168 300.167 36.1797C299.943 35.8426 300.055 35.3932 300.392 35.1685C300.504 35.0561 303.647 33.2584 306.566 35.7303C306.902 35.955 306.902 36.4044 306.678 36.7415C306.678 36.9662 306.453 37.0786 306.229 37.0786Z" fill="black"/>
<path d="M299.943 57.6404C299.83 57.6404 299.83 57.6404 299.718 57.6404C299.381 57.528 299.157 57.0786 299.269 56.7415C301.514 49.3258 297.585 43.9325 297.585 43.9325C297.361 43.5954 297.361 43.146 297.698 42.9213C298.034 42.6965 298.483 42.6965 298.708 43.0336C298.932 43.2583 303.086 49.101 300.616 57.1909C300.504 57.4156 300.167 57.6404 299.943 57.6404Z" fill="black"/>
<path d="M304.77 44.7191C304.433 44.7191 304.208 44.4944 304.096 44.1573L302.861 39.5506C302.749 39.2135 302.974 38.764 303.423 38.6517C303.759 38.5393 304.208 38.764 304.321 39.2135L305.555 43.8202C305.668 44.1573 305.443 44.6067 304.994 44.7191C304.882 44.7191 304.882 44.7191 304.77 44.7191Z" fill="black"/>
<path d="M291.973 45.8426C291.636 45.8426 291.411 45.6179 291.299 45.2808L290.064 40.6741C289.952 40.337 290.177 39.8876 290.626 39.7752C290.962 39.6629 291.411 39.8876 291.524 40.337L292.758 44.9438C292.871 45.2808 292.646 45.7303 292.197 45.8426C292.085 45.8426 291.973 45.8426 291.973 45.8426Z" fill="black"/>
<path d="M304.321 31.1235C304.321 31.1235 302.188 27.0786 297.024 26.9662C291.973 26.9662 289.054 30.4494 289.054 30.4494C289.054 30.4494 291.299 38.9887 284.339 43.4831C277.492 47.9775 272.104 46.7415 272.104 46.7415L267.164 44.9438L263.572 37.6404L278.053 22.1348L296.8 12.3595L306.341 21.0112L304.321 31.1235Z" fill="black"/>
<path d="M272.777 85.2808C272.777 85.2808 238.54 79.3257 217.324 112.135C199.363 140 198.577 166.18 198.577 166.18L252.796 161.685L272.777 85.2808Z" fill="#F7B369"/>
<path d="M198.69 166.18C198.69 166.18 197.23 207.865 231.019 204.944C269.297 201.685 289.054 126.629 289.054 126.629L300.841 120.112C300.841 120.112 298.147 129.213 307.464 124.831C316.893 120.337 315.546 110.899 315.546 110.899L306.004 91.3482C306.004 91.3482 322.618 77.1909 318.015 76.1797C310.943 74.6066 287.707 88.6516 287.707 88.6516C287.707 88.6516 289.503 79.4381 284.227 80.6741C278.502 82.0224 275.471 98.9887 275.471 98.9887L211.823 163.595L198.69 166.18Z" fill="#F48462"/>
<path d="M300.728 120.899C300.504 120.899 300.279 120.787 300.167 120.562C299.943 120.337 299.943 119.888 300.167 119.663L304.657 113.82C304.882 113.483 305.331 113.483 305.668 113.708C306.004 113.933 306.004 114.382 305.78 114.719L302.974 118.315L306.79 116.742C307.127 116.629 307.576 116.742 307.8 117.191C307.913 117.528 307.8 117.978 307.351 118.202L300.953 120.899C300.841 120.899 300.841 120.899 300.728 120.899Z" fill="black"/>
<path d="M301.739 94.8315C301.514 94.8315 301.29 94.7191 301.065 94.4944C300.841 94.1573 300.953 93.7079 301.29 93.4832L305.555 90.8989C305.892 90.6742 306.341 90.7865 306.566 91.1236C306.79 91.4607 306.678 91.9101 306.341 92.1348L302.075 94.7191C302.075 94.8315 301.851 94.8315 301.739 94.8315Z" fill="black"/>
<path d="M272.104 99.3258L294.779 131.461C294.779 131.461 279.625 185.393 249.092 201.91C218.558 218.539 194.985 195.281 198.69 166.067C202.394 136.966 272.104 99.3258 272.104 99.3258Z" fill="#F7B369"/>
<path d="M295.677 63.9325C295.565 63.9325 295.453 63.9325 295.34 63.8202L290.738 61.0112C290.401 60.7865 290.289 60.337 290.513 60C290.738 59.6629 291.187 59.5505 291.524 59.7752L296.126 62.5842C296.463 62.8089 296.575 63.2584 296.351 63.5955C296.126 63.8202 295.902 63.9325 295.677 63.9325Z" fill="black"/>
<path d="M287.707 89.5506C287.482 89.5506 287.37 89.4382 287.146 89.3258C286.921 89.1011 286.809 88.764 287.033 88.427C287.033 88.427 289.615 83.3708 286.472 79.7753C286.023 79.2135 285.574 79.2135 285.35 79.2135C283.329 79.5506 280.635 84.8315 279.4 88.0899C279.288 88.427 278.839 88.6517 278.502 88.5393C278.165 88.427 277.941 87.9775 278.053 87.6405C278.39 86.7416 281.757 78.427 285.237 77.8652C285.911 77.7528 286.809 77.8652 287.707 78.8764C290.064 81.7978 289.728 85.1685 289.166 87.191L296.35 83.1461C296.687 82.9214 297.136 83.0337 297.361 83.3708C297.585 83.7079 297.473 84.1573 297.136 84.382L288.268 89.3258C287.931 89.5506 287.819 89.5506 287.707 89.5506Z" fill="black"/>
<path d="M249.092 125.955C249.092 125.955 235.733 124.944 229.335 127.191C222.936 129.438 210.476 144.831 212.16 147.303C213.956 149.775 218.222 147.64 218.222 147.64C218.222 147.64 215.64 153.371 220.916 153.595C226.192 153.82 249.092 125.955 249.092 125.955Z" fill="#F48462"/>
<path d="M352.029 155.843C351.916 155.843 351.804 155.843 351.579 155.73C334.966 144.831 294.554 141.124 294.105 141.011C293.656 141.011 293.432 140.674 293.432 140.225C293.432 139.775 293.881 139.551 294.218 139.551C295.902 139.663 335.415 143.371 352.365 154.494C352.702 154.719 352.814 155.169 352.59 155.506C352.478 155.73 352.253 155.843 352.029 155.843Z" fill="white"/>
<path d="M294.667 132.247C294.442 132.247 294.218 132.135 294.105 131.91L272.104 98.9887L255.266 117.865C255.041 118.202 254.48 118.202 254.255 117.977C253.919 117.753 253.918 117.191 254.143 116.966L271.655 97.4156C271.767 97.1909 271.991 97.1909 272.216 97.1909C272.44 97.1909 272.665 97.3033 272.777 97.528L295.34 131.236C295.565 131.573 295.452 132.022 295.116 132.247C295.003 132.247 294.891 132.247 294.667 132.247Z" fill="white"/>
<path d="M334.517 146.404C329.578 146.404 323.179 145.506 320.485 145.056C320.148 145.056 319.924 144.719 319.924 144.382C319.924 144.045 320.036 143.708 320.373 143.595C321.046 143.371 335.639 137.191 340.354 142.472C341.252 143.483 341.14 144.27 340.915 144.719C340.354 146.067 337.772 146.404 334.517 146.404ZM323.628 144.045C332.047 145.169 339.119 145.281 339.681 144.157C339.681 144.157 339.681 143.933 339.344 143.483C336.537 140.449 328.567 142.36 323.628 144.045Z" fill="white"/>
<path d="M277.716 91.1236H277.604C273.787 90.3371 272.328 87.0786 272.104 85.3933C272.104 84.9438 272.328 84.6067 272.777 84.6067C273.226 84.4944 273.563 84.8315 273.563 85.2809C273.563 85.5056 274.124 88.9888 277.941 89.7753C278.39 89.8876 278.614 90.2247 278.502 90.6741C278.39 90.8989 278.053 91.1236 277.716 91.1236Z" fill="white"/>
<path d="M217.773 148.764C217.548 148.764 217.436 148.652 217.211 148.539C216.875 148.202 216.875 147.753 217.211 147.528L229.672 134.944C230.008 134.607 230.457 134.607 230.682 134.944C231.019 135.281 231.019 135.73 230.682 135.955L218.222 148.539C218.222 148.652 217.997 148.764 217.773 148.764Z" fill="black"/>
<path d="M809.351 45.5056C809.351 45.5056 822.709 39.7753 823.72 50.1123C824.954 62.0224 810.698 62.1348 810.698 62.1348L809.351 45.5056Z" fill="#F48462"/>
<path d="M815.974 56.1798C815.862 56.1798 815.75 56.1798 815.637 56.0674C815.301 55.8427 815.188 55.3933 815.413 55.0562L819.903 47.4157C820.128 47.0786 820.577 46.9663 820.913 47.191C821.25 47.4157 821.362 47.8652 821.138 48.2022L816.648 55.8427C816.535 56.0674 816.199 56.1798 815.974 56.1798Z" fill="black"/>
<path d="M856.835 123.371C856.835 123.371 853.804 141.685 868.621 141.123C883.439 140.562 884.225 119.438 884.225 119.438L856.835 123.371Z" fill="#F48462"/>
<path d="M874.122 102.022C874.122 102.022 890.062 73.3707 893.093 74.8314C896.124 76.292 854.926 138.539 853.018 137.753C851.222 136.741 874.122 102.022 874.122 102.022Z" fill="#465884"/>
<path d="M821.138 53.9325L817.321 53.8202C816.872 53.8202 816.648 53.4831 816.648 53.0337C816.648 52.5842 816.984 52.3595 817.433 52.3595L821.25 52.4719C821.699 52.4719 821.924 52.8089 821.924 53.2584C821.924 53.5955 821.587 53.9325 821.138 53.9325Z" fill="black"/>
<path d="M785.329 73.9325L785.217 87.9775C785.217 87.9775 790.605 90.8988 797.34 91.0112C806.433 91.1236 809.463 85.7303 809.463 85.7303L809.351 69.3258L785.329 73.9325Z" fill="#F48462"/>
<path d="M785.329 73.9325C785.329 73.9325 789.707 85.2808 800.034 83.7078C808.341 82.4718 810.698 70.6741 810.698 70.6741L785.329 73.9325Z" fill="black"/>
<path d="M813.617 34.0449C813.617 34.0449 819.454 59.6628 812.158 71.0112C804.3 83.146 791.615 79.5505 786.9 75.8426C780.502 70.8988 779.155 64.1572 779.155 64.1572C779.155 64.1572 770.399 65.955 767.481 58.764C764.45 51.2359 769.838 45.1685 774.216 44.8314C778.594 44.4943 779.155 45.2808 779.155 45.2808L777.92 37.1909C777.808 37.1909 804.524 7.41564 813.617 34.0449Z" fill="#F48462"/>
<path d="M777.696 56.7415C777.471 56.7415 777.359 56.6292 777.247 56.5168L770.511 50.6741C770.175 50.4494 770.175 50 770.399 49.6629C770.624 49.3258 771.073 49.3258 771.409 49.5505L778.145 55.3932C778.481 55.618 778.481 56.0674 778.257 56.4045C778.145 56.6292 777.92 56.7415 777.696 56.7415Z" fill="black"/>
<path d="M771.409 57.7528C771.185 57.7528 770.96 57.6404 770.848 57.4157C770.624 57.0786 770.624 56.6292 770.96 56.4044L775.002 53.3707C775.338 53.146 775.787 53.146 776.012 53.4831C776.236 53.8202 776.236 54.2696 775.9 54.4943L771.858 57.528C771.746 57.7528 771.634 57.7528 771.409 57.7528Z" fill="black"/>
<path d="M790.942 49.6628C790.605 49.6628 790.268 49.3258 790.268 48.9887L790.044 44.719C790.044 44.2696 790.38 43.9325 790.717 43.9325C791.166 43.9325 791.503 44.2696 791.503 44.6067L791.727 48.8763C791.615 49.3258 791.391 49.6628 790.942 49.6628Z" fill="black"/>
<path d="M807.443 48.764C807.106 48.764 806.769 48.4269 806.769 48.0899L806.545 43.8202C806.545 43.3708 806.882 43.0337 807.218 43.0337C807.555 43.0337 808.004 43.3708 808.004 43.7079L808.229 47.9775C808.116 48.427 807.78 48.764 807.443 48.764Z" fill="black"/>
<path d="M799.81 60.2247H799.697C799.248 60.1124 799.024 59.7753 799.136 59.3258C800.371 52.9214 798.35 47.6405 798.35 47.6405C798.238 47.3034 798.35 46.8539 798.799 46.7416C799.136 46.6292 799.585 46.7416 799.697 47.191C799.81 47.4157 801.942 52.9214 800.595 59.6629C800.483 60 800.146 60.2247 799.81 60.2247Z" fill="black"/>
<path d="M809.576 39.4381C809.463 39.4381 809.239 39.4381 809.127 39.3258C807.78 38.4269 805.647 38.5393 804.973 38.6516C804.637 38.6516 804.188 38.4269 804.188 37.9775C804.188 37.528 804.412 37.191 804.861 37.191C804.973 37.191 808.004 36.7415 810.025 38.2022C810.361 38.4269 810.474 38.8764 810.249 39.2134C810.025 39.3258 809.8 39.4381 809.576 39.4381Z" fill="black"/>
<path d="M788.584 42.0225C788.472 42.0225 788.247 42.0225 788.135 41.9101C787.798 41.6854 787.798 41.2359 788.023 40.8989C789.482 38.9887 792.513 38.4269 792.625 38.4269C793.074 38.3146 793.411 38.6517 793.523 38.9887C793.636 39.4382 793.299 39.7753 792.962 39.8876C792.962 39.8876 790.38 40.3371 789.258 41.9101C789.033 41.9101 788.809 42.0225 788.584 42.0225Z" fill="black"/>
<path d="M777.134 45.2808C777.134 45.2808 779.941 53.146 780.951 52.8089C781.961 52.4719 780.277 40 777.247 39.5505C774.216 38.9887 777.134 45.2808 777.134 45.2808Z" fill="black"/>
<path d="M778.369 44.0449C778.369 44.0449 787.125 42.9213 792.85 37.9774C797.677 33.8201 799.361 28.2022 799.361 28.2022C799.361 28.2022 803.177 27.528 808.678 30.5617C814.29 33.5954 815.188 43.9325 815.188 43.9325C815.188 43.9325 824.393 25.955 819.23 19.9999C814.178 14.0449 806.657 19.5505 806.657 19.5505C806.657 19.5505 807.443 8.0898 791.952 13.2583C776.349 18.5392 773.43 32.3595 773.43 32.3595C773.43 32.3595 768.042 32.1347 767.593 37.1909C767.144 42.2471 769.501 47.1909 769.501 47.1909C769.501 47.1909 771.746 44.8314 775.451 45.955C779.155 47.0786 779.155 47.0786 779.155 47.0786L778.369 44.0449Z" fill="black"/>
<path d="M809.351 82.2471C809.351 82.2471 806.545 85.3932 799.585 86.1797C792.625 86.9662 786.002 81.91 786.002 81.91L782.298 90.5617L794.085 96.2921L812.607 93.0336L811.821 84.6067L809.351 82.2471Z" fill="#A37B90"/>
<path d="M754.908 159.213C754.796 159.213 754.684 159.213 754.684 159.213C754.347 159.101 725.498 147.528 701.7 157.977C701.363 158.09 700.914 157.977 700.689 157.64C700.577 157.303 700.689 156.854 701.026 156.629C725.385 145.955 754.796 157.753 755.133 157.865C755.469 157.977 755.694 158.427 755.582 158.764C755.469 159.101 755.133 159.213 754.908 159.213Z" fill="#92B4EA"/>
<path d="M732.345 153.595C732.233 153.595 732.233 153.595 732.121 153.595C728.192 152.472 715.282 148.315 714.833 144.944C714.721 144.382 714.946 143.595 715.956 143.034C721.456 139.775 731.671 151.124 732.794 152.472C733.019 152.697 733.019 153.034 732.906 153.371C732.794 153.371 732.57 153.595 732.345 153.595ZM718.313 143.708C717.752 143.708 717.191 143.82 716.742 144.045C716.517 144.157 716.293 144.382 716.293 144.494C716.517 145.955 723.028 148.876 729.875 151.124C726.732 148.09 721.681 143.708 718.313 143.708Z" fill="#92B4EA"/>
<path d="M880.408 113.258C880.408 113.258 893.429 112.809 889.95 106.517C886.47 100.225 863.233 95.5056 860.202 102.247C857.059 109.101 880.408 113.258 880.408 113.258Z" fill="#F48462"/>
<path d="M878.051 123.82C878.051 123.82 891.072 123.371 887.592 117.079C884.112 110.786 860.876 106.067 857.845 112.809C854.814 119.663 878.051 123.82 878.051 123.82Z" fill="#F48462"/>
<path d="M869.519 131.348C872.438 131.91 875.357 131.798 878.163 130.787C880.633 129.888 882.653 128.315 880.969 125.618C877.602 120.225 856.947 116.966 854.477 123.034C852.681 127.64 863.682 130.337 869.519 131.348Z" fill="#F48462"/>
<path d="M883.663 111.798H883.551L865.703 108.989C865.254 108.876 865.029 108.539 865.141 108.202C865.254 107.753 865.59 107.528 865.927 107.64L883.776 110.449C884.225 110.562 884.449 110.899 884.337 111.236C884.337 111.573 884 111.798 883.663 111.798Z" fill="black"/>
<path d="M879.847 122.697H879.734L861.886 119.888C861.437 119.775 861.212 119.438 861.325 119.101C861.437 118.652 861.774 118.427 862.111 118.539L879.959 121.348C880.408 121.461 880.632 121.798 880.52 122.135C880.52 122.472 880.183 122.697 879.847 122.697Z" fill="black"/>
<path d="M801.493 96.5168C800.371 96.5168 799.136 96.4044 797.901 96.1797C797.452 96.0673 797.228 95.7302 797.34 95.2808C797.452 94.8314 797.789 94.6067 798.238 94.719C808.229 96.7415 812.719 89.4381 812.943 89.101C813.168 88.764 813.617 88.6516 813.954 88.8763C814.29 89.101 814.403 89.5505 814.178 89.8875C814.066 89.8875 810.025 96.5168 801.493 96.5168Z" fill="#92B4EA"/>
<path d="M796.891 67.6404C795.432 67.6404 792.962 67.0786 791.278 63.7078C791.054 63.3707 791.278 62.9213 791.615 62.6965C791.952 62.4718 792.401 62.6965 792.625 63.0336C794.646 67.0786 797.789 66.0673 797.901 65.955C798.238 65.8426 798.687 66.0673 798.799 66.4044C798.912 66.7415 798.687 67.1909 798.35 67.3033C798.35 67.4156 797.677 67.6404 796.891 67.6404Z" fill="black"/>
<path d="M932.606 161.685C932.606 161.685 952.251 147.753 963.925 137.865C975.599 127.977 1001.19 91.7977 1011.63 87.8651C1021.96 83.8202 999.622 181.236 999.622 181.236C999.622 181.236 967.966 205.506 944.617 192.135C921.156 178.764 932.606 161.685 932.606 161.685Z" fill="#465884"/>
<path d="M1019.27 42.9213C1019.27 42.9213 1013.99 30.5617 1015 25.0561C1016.01 19.6628 1037.56 3.59541 1055.52 12.3595C1073.6 21.0111 1074.5 44.9437 1070.23 54.719C1059.45 79.9999 1037.68 68.0898 1037.68 68.0898C1037.68 68.0898 1002.99 57.0786 1019.27 42.9213Z" fill="black"/>
<path d="M1022.07 71.6853V72.1347L1021.96 81.4606L1021.85 88.764C1021.85 88.764 1021.17 90.4494 1029.59 90.337C1040.93 90.1123 1044.86 85.5055 1044.86 85.5055L1046.21 68.4269L1042.73 68.8763L1022.07 71.6853Z" fill="#F48462"/>
<path d="M1022.07 72.2471L1021.96 81.573C1027.46 81.2359 1037.68 79.3258 1042.17 70.8988C1042.5 70.2247 1042.73 69.5505 1042.84 69.1011L1022.07 72.1348V72.2471Z" fill="black"/>
<path d="M1020.84 27.6404C1020.84 27.6404 1009.05 51.2359 1012.08 64.9437C1015.11 78.764 1027.57 77.1909 1035.09 75.0561C1042.62 72.8089 1046.32 68.4269 1046.32 68.4269C1046.32 68.4269 1053.05 71.1235 1058.11 64.9437C1063.16 58.764 1060.58 51.2359 1056.76 49.3258C1052.94 47.4156 1048.12 49.9999 1048.12 49.9999L1052.16 43.146C1052.16 43.2583 1038.57 6.74149 1020.84 27.6404Z" fill="#F48462"/>
<path d="M1048.12 50.1124C1048.12 50.1124 1037.79 44.1573 1034.42 36.4045C1030.94 28.6517 1031.05 24.8315 1031.05 24.8315C1031.05 24.8315 1029.26 29.7753 1025.33 30.6742C1021.4 31.573 1019.04 31.6854 1019.04 31.6854L1016.24 38.6517L1018.59 21.7978C1018.59 21.7978 1029.26 16.7416 1030.6 16.7416C1031.95 16.8539 1049.46 20.7865 1050.36 21.9101C1051.37 23.0337 1056.2 36.9663 1056.2 36.9663L1056.31 43.1461L1048.12 50.1124Z" fill="black"/>
<path d="M1019.72 181.348C1019.72 181.348 1015.34 180.449 1009.84 178.09C1004.34 175.618 982.11 174.944 974.477 174.607C966.844 174.27 947.424 182.247 949.556 184.944C951.577 187.528 969.425 185.618 969.425 185.618C969.425 185.618 954.159 197.079 956.067 199.888C957.975 202.697 963.7 200.225 963.7 200.225C963.7 200.225 958.874 203.595 963.027 205.618C967.068 207.528 984.467 197.753 984.467 197.753C984.467 197.753 975.824 209.101 978.518 210.786C981.324 212.36 993.672 202.584 993.672 202.584C993.672 202.584 1006.58 214.494 1015.9 207.865C1025.22 201.236 1027.91 195.506 1027.91 195.506L1019.72 181.348Z" fill="#F48462"/>
<path d="M1069.78 88.9888C1069.78 88.9888 1120.29 117.865 1112.55 183.371C1107.16 228.764 1007.59 215.506 1007.59 215.506L1006.24 174.607C1006.24 174.607 1058.67 160.337 1062.71 158.202C1070.57 153.82 1069.78 88.9888 1069.78 88.9888Z" fill="#465884"/>
<path d="M969.874 144.944C969.65 144.944 969.425 144.944 969.201 144.944C968.303 144.831 967.629 144.382 967.18 143.595C965.272 140.112 969.425 130.562 969.874 129.551C969.987 129.326 970.323 129.101 970.548 129.101C970.885 129.101 971.109 129.326 971.221 129.551C971.558 130.674 974.926 140.449 972.232 143.82C972.007 144.27 971.221 144.944 969.874 144.944ZM970.548 131.91C969.201 135.281 967.405 140.899 968.527 142.809C968.752 143.146 968.976 143.371 969.425 143.371C970.548 143.483 970.997 143.146 971.221 142.809C972.793 140.899 971.558 135.393 970.548 131.91Z" fill="#A37B90"/>
<path d="M1029.48 91.0112C1024.65 91.0112 1021.85 89.5506 1021.62 89.4382C1021.29 89.2135 1021.17 88.7641 1021.29 88.427C1021.51 88.0899 1021.96 87.9775 1022.3 88.0899C1022.41 88.0899 1031.95 92.9214 1046.09 84.1573C1046.43 83.9326 1046.88 84.045 1047.11 84.382C1047.33 84.7191 1047.22 85.1686 1046.88 85.3933C1039.7 89.8877 1033.75 91.0112 1029.48 91.0112Z" fill="#A37B90"/>
<path d="M1006.24 175.281C1005.91 175.281 1005.68 175.056 1005.57 174.719C1005.46 174.382 1005.68 173.932 1006.02 173.82L1061.92 157.528L1061.14 142.697C1061.14 142.247 1061.47 141.91 1061.81 141.91C1062.15 141.91 1062.6 142.247 1062.6 142.584L1063.49 157.977C1063.49 158.315 1063.27 158.652 1062.93 158.764L1006.47 175.281C1006.36 175.281 1006.24 175.281 1006.24 175.281Z" fill="#A37B90"/>
<path d="M995.693 170.899C995.356 170.899 995.019 170.562 995.019 170.225L993.785 146.629C993.336 145.506 990.529 138.427 991.315 126.517C992.101 113.82 998.724 103.708 999.06 103.258C999.285 102.921 999.734 102.809 1000.07 103.034C1000.41 103.258 1000.52 103.708 1000.3 104.045C1000.18 104.157 993.56 114.27 992.774 126.629C991.989 138.989 995.132 146.067 995.244 146.18C995.244 146.292 995.356 146.404 995.356 146.404L996.591 170.112C996.479 170.562 996.142 170.899 995.693 170.899C995.805 170.899 995.693 170.899 995.693 170.899Z" fill="#A37B90"/>
<path d="M1077.53 165.73C1073.26 165.73 1064.17 159.326 1062.26 157.977C1062.03 157.753 1061.92 157.416 1062.03 157.079C1062.15 156.742 1062.48 156.629 1062.82 156.629C1064.28 156.742 1076.74 158.202 1079.43 161.798C1079.88 162.472 1080.11 163.258 1080 163.933C1079.88 164.719 1079.43 165.168 1078.76 165.506C1078.2 165.618 1077.86 165.73 1077.53 165.73ZM1065.51 158.427C1070.12 161.461 1076.18 164.831 1077.97 164.157C1078.09 164.045 1078.31 164.045 1078.31 163.708C1078.42 163.371 1078.31 163.034 1078.09 162.697C1076.52 160.562 1070 159.101 1065.51 158.427Z" fill="#A37B90"/>
<path d="M967.068 198.202C966.844 198.202 966.619 198.09 966.507 197.865C966.282 197.528 966.395 197.079 966.731 196.854L982.784 185.73C983.12 185.506 983.569 185.618 983.794 185.955C984.018 186.292 983.906 186.742 983.569 186.966L967.517 198.09C967.293 198.202 967.18 198.202 967.068 198.202Z" fill="black"/>
<path d="M969.425 186.292C969.201 186.292 968.976 186.18 968.752 185.955C968.527 185.618 968.64 185.168 968.976 184.944L976.048 180.786C976.385 180.562 976.834 180.674 977.059 181.011C977.283 181.348 977.171 181.798 976.834 182.022L969.762 186.18C969.65 186.292 969.538 186.292 969.425 186.292Z" fill="black"/>
<path d="M1023.42 66.9663C1022.75 66.9663 1022.18 66.7415 1021.62 66.4045C1020.16 65.3932 1019.94 63.2584 1019.94 63.146C1019.94 62.809 1020.16 62.4719 1020.5 62.3595L1030.27 59.3258C1030.6 59.2135 1030.83 59.3258 1031.05 59.5505C1031.28 59.7753 1031.28 60.1123 1031.05 60.3371C1030.6 60.8989 1027.01 66.2921 1024.09 66.8539C1023.76 66.9663 1023.64 66.9663 1023.42 66.9663ZM1021.51 63.5955C1021.62 64.1573 1021.96 64.8314 1022.52 65.2809C1022.86 65.5056 1023.31 65.618 1023.76 65.5056C1025.22 65.2809 1027.12 63.146 1028.58 61.3483L1021.51 63.5955Z" fill="black"/>
<path d="M1020.16 58.0899C1019.83 58.0899 1019.6 57.8651 1019.49 57.6404C1017.58 51.6854 1022.41 47.191 1022.63 46.9663C1022.97 46.7415 1023.42 46.7415 1023.64 46.9663C1023.87 47.3033 1023.87 47.7528 1023.64 47.9775C1023.64 47.9775 1019.27 52.1348 1020.95 57.0786C1021.06 57.4157 1020.84 57.8651 1020.5 57.9775C1020.28 58.0899 1020.28 58.0899 1020.16 58.0899Z" fill="black"/>
<path d="M1018.37 48.2022H1018.26C1017.81 48.0898 1017.58 47.7528 1017.69 47.3033L1018.59 43.0337L1016.91 40.7865C1016.68 40.4494 1016.8 40 1017.13 39.7752C1017.47 39.5505 1017.92 39.6629 1018.14 40L1019.94 42.5842C1020.05 42.6966 1020.05 42.9213 1020.05 43.146L1019.15 47.6404C1019.04 47.9775 1018.7 48.2022 1018.37 48.2022Z" fill="black"/>
<path d="M1031.28 49.3257H1031.17C1030.72 49.2134 1030.49 48.8763 1030.6 48.4269L1031.5 44.1572L1029.82 41.91C1029.59 41.5729 1029.71 41.1235 1030.04 40.8988C1030.38 40.6741 1030.83 40.7864 1031.05 41.1235L1032.85 43.7078C1032.96 43.8201 1032.96 44.0448 1032.96 44.2696L1032.06 48.7639C1031.95 49.101 1031.61 49.3257 1031.28 49.3257Z" fill="black"/>
<path d="M1016.8 37.8651C1016.68 37.8651 1016.46 37.8651 1016.35 37.7527C1016.01 37.528 1016.01 37.0786 1016.24 36.7415C1017.92 34.6067 1020.61 35.2808 1021.85 35.955C1022.18 36.1797 1022.3 36.6291 1022.18 36.9662C1021.96 37.3033 1021.51 37.4156 1021.17 37.3033C1021.06 37.3033 1018.7 36.0673 1017.36 37.6404C1017.25 37.7527 1017.02 37.8651 1016.8 37.8651Z" fill="black"/>
<path d="M1036.33 38.8763C1036.22 38.8763 1036.1 38.8763 1035.99 38.764C1032.62 36.8538 1030.27 37.7527 1030.15 37.7527C1029.82 37.8651 1029.37 37.7527 1029.26 37.4156C1029.14 37.0786 1029.26 36.6291 1029.59 36.5168C1029.71 36.5168 1032.62 35.2808 1036.67 37.6404C1037 37.8651 1037.11 38.3145 1036.89 38.6516C1036.78 38.764 1036.55 38.8763 1036.33 38.8763Z" fill="black"/>
<path d="M1048.79 61.7977C1048.56 61.7977 1048.45 61.6853 1048.23 61.573C1047.89 61.3483 1047.89 60.7865 1048.23 60.5617L1055.19 53.3707C1055.41 53.0337 1055.97 53.0337 1056.2 53.3707C1056.53 53.5954 1056.53 54.1572 1056.2 54.382L1049.24 61.573C1049.13 61.6853 1049.01 61.7977 1048.79 61.7977Z" fill="black"/>
<path d="M1056.42 60.1123H1056.31L1051.37 58.9887C1050.92 58.8763 1050.7 58.5393 1050.81 58.0898C1050.92 57.6404 1051.26 57.4157 1051.71 57.528L1056.65 58.6516C1057.1 58.764 1057.32 59.1011 1057.21 59.5505C1057.1 59.8876 1056.76 60.1123 1056.42 60.1123Z" fill="black"/>
<path d="M610.998 170.449C610.998 170.449 633.449 166.854 641.868 165.955C651.073 164.944 656.237 170.112 659.38 173.595C664.768 179.55 664.88 191.348 664.095 193.371C662.972 196.404 657.359 190.112 657.359 190.112C657.359 190.112 657.921 192.584 655.227 194.831C652.532 197.079 649.726 196.629 649.726 196.629C649.726 196.629 650.175 201.348 647.705 201.685C645.348 202.022 635.021 204.382 634.01 201.461C633 198.539 640.633 194.944 640.633 194.944L639.062 189.888C639.062 189.888 634.796 200 625.591 200C616.274 200.112 611.447 189.888 611.447 189.888L610.998 170.449Z" fill="#F48462"/>
<path d="M657.359 190.899H657.247C656.798 190.786 656.574 190.449 656.686 190.112C657.584 184.382 651.747 179.775 651.747 179.663C651.41 179.438 651.41 178.989 651.634 178.652C651.859 178.315 652.308 178.315 652.645 178.539C652.869 178.764 659.155 183.82 658.145 190.337C657.921 190.562 657.696 190.899 657.359 190.899Z" fill="black"/>
<path d="M649.726 197.303C649.614 197.303 649.502 197.303 649.502 197.303C649.165 197.191 648.94 196.742 649.053 196.405C650.849 191.798 647.032 186.18 647.032 186.18C646.807 185.843 646.92 185.393 647.256 185.169C647.593 184.944 648.042 185.056 648.267 185.393C648.491 185.618 652.532 191.685 650.512 196.966C650.287 197.079 649.951 197.303 649.726 197.303Z" fill="black"/>
<path d="M600.559 207.416V161.798C600.559 160.562 601.569 159.663 602.692 159.663H613.468C614.703 159.663 615.601 160.674 615.601 161.798V207.416C615.601 208.652 614.591 209.55 613.468 209.55H602.692C601.569 209.55 600.559 208.539 600.559 207.416Z" fill="#F7B369"/>
<path d="M807.667 177.191L784.655 175.281C782.186 175.056 780.39 172.921 780.614 170.449L784.543 123.034C784.768 120.562 786.9 118.764 789.37 118.989L812.27 120.899C814.739 121.124 816.535 123.258 816.311 125.73L812.382 173.146C812.158 175.506 810.025 177.303 807.667 177.191Z" fill="white"/>
<path d="M811.147 177.416L788.247 175.506C785.778 175.281 783.982 173.146 784.206 170.674L788.135 123.258C788.36 120.786 790.493 118.989 792.962 119.213L815.862 121.124C818.331 121.348 820.128 123.483 819.903 125.955L815.974 173.371C815.637 175.843 813.505 177.64 811.147 177.416Z" fill="#465884"/>
<path d="M873.336 204.494H964.823C966.844 204.494 968.078 202.359 967.18 200.562L935.861 141.461C935.412 140.674 934.514 140.112 933.504 140.112H842.017C839.997 140.112 838.762 142.247 839.66 144.045L870.979 203.146C871.54 204.045 872.438 204.494 873.336 204.494Z" fill="#92B4EA"/>
<path d="M872.213 208.989H982.896C983.906 208.989 984.692 208.202 984.692 207.191V202.36C984.692 201.348 983.906 200.562 982.896 200.562H872.213C871.203 200.562 870.417 201.348 870.417 202.36V207.191C870.417 208.202 871.203 208.989 872.213 208.989Z" fill="#6876AA"/>
<path d="M899.267 181.236C904.164 181.236 908.135 177.262 908.135 172.36C908.135 167.457 904.164 163.483 899.267 163.483C894.369 163.483 890.399 167.457 890.399 172.36C890.399 177.262 894.369 181.236 899.267 181.236Z" fill="white"/>
<path d="M757.49 167.303C757.49 167.303 768.94 142.921 770.736 141.124C772.532 139.326 793.748 132.135 796.667 132.36C799.585 132.472 794.983 138.989 792.738 140.786C790.493 142.584 787.574 144.607 787.574 144.607C787.574 144.607 803.514 144.607 804.973 147.303C806.433 150 802.167 152.472 802.167 152.472C802.167 152.472 807.892 152.921 805.871 156.629C803.851 160.337 788.247 164.382 788.247 164.382C788.247 164.382 785.217 179.888 774.777 183.595C764.225 187.303 759.398 186.18 759.398 186.18L757.49 167.303Z" fill="#F48462"/>
<path d="M775.338 146.404C775.002 146.404 774.665 146.067 774.665 145.73C774.665 145.281 774.889 144.944 775.338 144.944L787.462 143.82C787.798 143.82 788.248 144.045 788.248 144.494C788.248 144.944 788.023 145.281 787.574 145.281L775.338 146.404C775.451 146.404 775.338 146.404 775.338 146.404Z" fill="black"/>
<path d="M782.186 154.494C781.849 154.494 781.512 154.157 781.512 153.82C781.512 153.371 781.849 153.034 782.186 153.034L799.585 152.135C799.922 152.135 800.371 152.472 800.371 152.809C800.371 153.258 800.034 153.595 799.697 153.595L782.186 154.494Z" fill="black"/>
<path d="M131.337 90.8988C131.337 90.8988 162.544 93.2584 174.218 106.18C185.893 119.101 170.402 200.112 169.616 201.236C168.83 202.359 158.054 206.742 120.112 205.955C82.1699 205.281 70.271 203.708 68.9239 202.022C67.6891 200.225 57.474 107.64 66.6789 99.8876C75.8837 92.1348 108.55 88.5393 131.337 90.8988Z" fill="#92B4EA"/>
<path d="M112.815 74.719L113.264 95.0561C113.264 95.0561 117.081 100.786 128.98 101.573C137.848 102.135 140.879 99.9999 140.879 99.9999L139.419 89.7752L137.96 79.7752L116.407 75.5055L112.815 74.719Z" fill="#F48462"/>
<path d="M116.407 75.3932C116.52 75.955 116.744 76.6291 117.081 77.3033C121.796 87.3033 134.368 89.2134 139.419 89.6629L137.96 79.6629L116.407 75.3932Z" fill="black"/>
<path d="M141.44 33.2584C141.44 33.2584 152.665 58.5393 148.737 72.6966C144.808 86.9662 131.898 84.8314 124.153 82.1348C116.407 79.4381 112.815 74.719 112.815 74.719C112.815 74.719 105.631 77.1909 100.692 70.5617C95.7526 63.8202 98.7835 56.0673 102.825 54.2696C106.978 52.4718 111.917 55.3932 111.917 55.3932L107.988 48.0898C107.988 48.0898 123.928 10.5617 141.44 33.2584Z" fill="#F48462"/>
<path d="M140.542 65.3932C140.43 65.3932 140.43 65.3932 140.317 65.3932C139.981 65.2809 139.756 64.8315 139.868 64.4944C141.328 59.7753 137.848 54.7191 137.736 54.7191C137.511 54.382 137.623 53.9326 137.96 53.7079C138.297 53.4831 138.746 53.5955 138.97 53.9326C139.083 54.1573 142.899 59.6629 141.216 65.0562C141.103 65.1685 140.766 65.3932 140.542 65.3932Z" fill="black"/>
<path d="M110.795 67.191C110.57 67.191 110.458 67.0787 110.233 66.9663L103.386 59.6629C103.161 59.3258 103.161 58.8764 103.386 58.6517C103.723 58.427 104.172 58.427 104.396 58.6517L111.244 65.9551C111.468 66.2921 111.468 66.7416 111.244 66.9663C111.131 67.191 111.019 67.191 110.795 67.191Z" fill="black"/>
<path d="M103.498 65.2809C103.161 65.2809 102.825 65.0562 102.825 64.6067C102.712 64.1573 103.049 63.8202 103.498 63.8202L108.213 63.146C108.662 63.0337 108.999 63.3708 108.999 63.8202C109.111 64.2696 108.774 64.6067 108.325 64.6067L103.498 65.2809C103.61 65.2809 103.61 65.2809 103.498 65.2809Z" fill="black"/>
<path d="M264.246 144.944L264.919 140.449C264.919 140.449 282.319 127.191 292.983 122.809C297.473 121.011 303.759 122.472 298.483 128.427C295.565 131.685 294.218 135.506 294.218 135.506C294.218 135.506 302.861 132.809 308.698 128.876C312.515 126.404 318.016 116.292 321.271 118.539C326.435 122.022 320.485 131.798 320.485 131.798C320.485 131.798 323.179 119.326 328.231 124.157C333.282 128.989 319.475 153.483 312.852 159.326C306.341 165.056 271.655 171.91 271.655 171.91L264.246 144.944Z" fill="#F48462"/>
<path d="M300.953 140.786C300.616 140.786 300.279 140.449 300.167 140.112C300.167 139.663 300.392 139.326 300.841 139.326C308.474 138.539 315.658 131.798 315.658 131.798C315.995 131.573 316.444 131.573 316.668 131.798C316.893 132.135 316.893 132.584 316.668 132.809C316.444 133.146 309.035 140 300.953 140.786Z" fill="black"/>
<path d="M309.933 146.404C309.821 146.404 309.709 146.404 309.596 146.292L294.33 137.079C293.993 136.854 293.881 136.404 294.105 136.067C294.33 135.73 294.779 135.618 295.116 135.843L309.933 144.831L316.781 139.663C317.118 139.438 317.567 139.438 317.791 139.775C318.016 140.112 318.016 140.562 317.679 140.786L310.382 146.18C310.27 146.404 310.046 146.404 309.933 146.404Z" fill="black"/>
<path d="M280.635 146.18C280.298 146.18 279.961 145.955 279.961 145.618C279.849 145.169 280.074 144.831 280.41 144.607C288.717 142.022 294.105 135.955 294.105 135.843C294.33 135.506 294.891 135.506 295.228 135.73C295.565 135.955 295.565 136.517 295.34 136.854C295.116 137.079 289.615 143.258 280.972 146.067C280.747 146.18 280.747 146.18 280.635 146.18Z" fill="black"/>
<path d="M174.33 106.18C174.33 106.18 205.874 136.18 234.386 137.977C248.194 138.876 266.603 132.247 266.603 132.247L282.992 175.281C282.992 175.281 225.294 230 166.473 186.854C149.635 174.494 174.33 106.18 174.33 106.18Z" fill="#92B4EA"/>
<path d="M170.177 178.876C169.84 178.876 169.504 178.539 169.391 178.202C168.605 168.315 166.922 149.551 166.922 149.326C166.922 148.876 167.146 148.539 167.595 148.539C168.044 148.539 168.381 148.764 168.381 149.213C168.381 149.438 170.065 168.202 170.851 178.09C170.963 178.539 170.738 178.876 170.177 178.876C170.289 178.876 170.289 178.876 170.177 178.876Z" fill="#E6F4FF"/>
<path d="M118.652 206.067C118.652 206.067 135.603 205.393 139.307 204.831C143.012 204.27 159.288 206.966 159.85 204.157L153.676 199.775C153.676 199.775 170.065 201.685 175.116 199.101C180.168 196.517 181.627 194.944 182.862 190.899C184.097 186.854 173.994 185.056 173.994 185.056C173.994 185.056 180.617 180.899 172.198 177.416C163.779 173.932 127.633 168.652 112.478 178.09C97.3242 187.528 118.652 206.067 118.652 206.067Z" fill="#F48462"/>
<path d="M174.106 185.843C173.994 185.843 173.994 185.843 173.881 185.843C165.126 182.921 155.921 184.157 155.809 184.157C155.36 184.27 155.023 183.933 155.023 183.483C154.911 183.034 155.247 182.697 155.696 182.697C156.145 182.697 165.462 181.348 174.443 184.494C174.779 184.607 175.004 185.056 174.892 185.393C174.667 185.618 174.33 185.843 174.106 185.843Z" fill="black"/>
<path d="M66.7911 100C66.7911 100 2.2451 136.18 17.1749 189.438C27.839 227.303 131 212.584 131 212.584L129.878 167.753L74.4244 159.101L66.7911 100Z" fill="#92B4EA"/>
<path d="M64.6583 162.135C60.9539 162.135 57.8108 161.685 57.1373 160.337C56.6883 159.438 57.025 158.427 58.0353 157.303C64.7705 150.337 80.4861 158.764 81.1596 159.213C81.3841 159.326 81.6086 159.663 81.4964 160C81.4964 160.337 81.1596 160.562 80.9351 160.562C77.9043 161.011 70.3832 162.135 64.6583 162.135ZM65.5563 155.955C63.0867 155.955 60.7294 156.517 59.1578 158.315C58.5966 158.876 58.3721 159.438 58.4843 159.663C59.3824 161.348 69.1485 160.899 78.4655 159.438C75.5469 158.09 70.1587 155.955 65.5563 155.955Z" fill="#E6F4FF"/>
<path d="M139.756 92.2472C139.756 92.2472 146.267 113.933 144.022 113.483C141.889 113.034 128.868 101.461 128.868 101.461C128.868 101.461 118.652 114.157 115.622 114.157C112.478 114.27 112.815 90.2247 112.815 90.2247C112.815 90.2247 115.397 97.5281 126.847 99.2135C138.297 100.899 139.756 92.2472 139.756 92.2472Z" fill="#E6F4FF"/>
<path d="M126.847 45.7303C126.51 45.7303 126.173 45.5056 126.173 45.1685C126.061 44.7191 126.398 44.382 126.735 44.2697L132.46 43.1461C132.909 43.0337 133.245 43.3708 133.358 43.7079C133.47 44.1573 133.133 44.4944 132.796 44.6067L127.072 45.7303C126.847 45.7303 126.847 45.7303 126.847 45.7303Z" fill="black"/>
<path d="M144.471 44.719C144.359 44.719 144.359 44.719 144.246 44.719L140.654 43.5954C140.317 43.4831 140.093 43.0336 140.205 42.6966C140.317 42.3595 140.766 42.1348 141.103 42.2471L144.695 43.3707C145.032 43.4831 145.257 43.9325 145.144 44.2696C145.144 44.4943 144.808 44.719 144.471 44.719Z" fill="black"/>
<path d="M174.555 199.326H271.206L298.82 136.854H205.986C203.629 136.854 201.608 138.202 200.598 140.337L174.555 199.326Z" fill="white"/>
<path d="M182.974 199.326H279.625L304.208 143.595C305.555 140.449 303.31 136.854 299.83 136.854H210.476L182.974 199.326Z" fill="#A37B90"/>
<path d="M142.226 207.191H278.727C280.859 207.191 282.656 205.393 282.656 203.258C282.656 201.124 280.859 199.326 278.727 199.326H142.226C140.093 199.326 138.297 201.124 138.297 203.258C138.185 205.506 139.981 207.191 142.226 207.191Z" fill="#465884"/>
<path d="M243.816 176.292C248.341 176.292 252.01 172.62 252.01 168.09C252.01 163.56 248.341 159.888 243.816 159.888C239.29 159.888 235.621 163.56 235.621 168.09C235.621 172.62 239.29 176.292 243.816 176.292Z" fill="white"/>
<path d="M143.012 54.8315C142.675 54.8315 142.338 54.6067 142.338 54.1573L141.665 49.4382C141.665 49.2135 141.665 48.9888 141.777 48.8764L143.461 46.8539C143.685 46.5169 144.134 46.5169 144.471 46.7416C144.808 46.9663 144.808 47.4157 144.583 47.7528L143.124 49.5506L143.797 53.9326C143.797 54.382 143.573 54.7191 143.012 54.8315C143.124 54.8315 143.012 54.8315 143.012 54.8315Z" fill="black"/>
<path d="M130.102 55.7303C129.766 55.7303 129.429 55.5055 129.429 55.0561L128.755 50.337C128.755 50.1123 128.755 49.8876 128.868 49.7752L130.551 47.7527C130.776 47.4157 131.225 47.4157 131.562 47.6404C131.898 47.8651 131.898 48.3145 131.674 48.6516L130.215 50.5617L130.888 54.9438C130.888 55.2808 130.664 55.7303 130.102 55.7303C130.215 55.7303 130.102 55.7303 130.102 55.7303Z" fill="black"/>
<path d="M116.407 163.034C116.295 163.034 116.407 163.034 116.407 163.034C116.071 163.034 90.9257 159.551 80.9351 160.449C80.4861 160.449 80.1494 160.225 80.1494 159.775C80.1494 159.326 80.3739 158.989 80.8229 158.989C90.9257 157.977 115.509 161.461 116.52 161.573C116.969 161.573 117.193 162.022 117.193 162.36C117.081 162.809 116.744 163.034 116.407 163.034Z" fill="#E6F4FF"/>
<path d="M113.713 57.8652C113.713 57.8652 120.449 53.0337 119.887 46.0674C119.326 38.9888 117.754 37.3034 117.754 37.3034C117.754 37.3034 125.051 37.191 133.245 35.618C137.736 34.7191 141.552 33.3708 141.552 33.3708L143.91 39.2135C145.93 39.1011 148.961 23.8202 143.573 18.7641C139.756 15.1686 124.377 22.809 124.377 22.809C124.377 22.809 107.09 19.2135 97.4365 31.6854C87.7826 44.1573 99.3448 58.2023 99.3448 58.2023C99.3448 58.2023 101.927 51.6854 113.713 57.8652Z" fill="black"/>
<path d="M132.46 25.955C132.46 25.955 136.725 13.5955 127.857 11.6854C118.989 9.77525 111.917 20.7865 111.917 20.7865C111.917 20.7865 111.693 14.7191 105.07 16.7415C98.4467 18.8764 92.7218 38.3146 95.9772 39.7752C99.2325 41.2359 132.46 25.955 132.46 25.955Z" fill="black"/>
<path d="M138.072 73.7079C137.848 73.7079 137.736 73.7079 137.511 73.7079C134.143 73.2584 132.909 69.8876 132.796 69.7753C132.684 69.5506 132.684 69.3258 132.909 69.1011C133.021 68.8764 133.245 68.764 133.47 68.764H142.226C142.45 68.764 142.675 68.8764 142.899 69.1011C143.012 69.3258 143.012 69.5506 142.899 69.7753C142.899 69.8876 141.215 73.7079 138.072 73.7079ZM134.817 70.2247C135.378 71.0112 136.276 72.0225 137.736 72.2472C139.195 72.4719 140.43 71.2359 141.103 70.2247H134.817Z" fill="black"/>
<path d="M174.106 194.27C173.994 194.27 173.881 194.27 173.657 194.157C169.054 191.236 155.809 192.135 155.696 192.247C155.247 192.247 154.91 192.022 154.91 191.573C154.91 191.124 155.135 190.787 155.584 190.787C156.145 190.787 169.504 189.775 174.443 193.034C174.779 193.258 174.892 193.708 174.667 194.045C174.555 194.157 174.33 194.27 174.106 194.27Z" fill="black"/>
<path d="M455.19 137.528C455.19 137.528 461.813 102.584 465.293 98.764C468.773 94.9438 491.336 84.9438 494.254 87.7528C497.173 90.4494 494.254 93.9326 494.254 93.9326C494.254 93.9326 498.52 91.4607 500.204 94.0449C501.775 96.6292 498.632 100.674 498.632 100.674C498.632 100.674 502.112 98.5393 501.551 103.258C501.102 108.09 491.672 116.854 491.672 116.854C491.672 116.854 491.111 126.629 485.162 137.191C479.1 147.753 460.803 148.202 460.803 148.202L455.19 137.528Z" fill="#F48462"/>
<path d="M476.181 103.483C475.957 103.483 475.62 103.371 475.508 103.034C475.283 102.697 475.508 102.247 475.845 102.022L493.805 92.6965C494.142 92.4718 494.591 92.6965 494.816 93.0336C495.04 93.3707 494.816 93.8201 494.479 94.0448L476.518 103.371C476.406 103.483 476.294 103.483 476.181 103.483Z" fill="black"/>
<path d="M481.008 112.36C480.784 112.36 480.559 112.247 480.335 112.022C480.11 111.685 480.223 111.236 480.559 111.011L498.071 100C498.408 99.7753 498.857 99.8876 499.081 100.225C499.306 100.562 499.193 101.011 498.857 101.236L481.345 112.247C481.345 112.247 481.121 112.36 481.008 112.36Z" fill="black"/>
<path d="M485.162 150.225C485.162 150.225 455.302 213.258 409.278 209.775C363.254 206.292 366.734 125.169 381.215 104.494C395.583 83.9326 416.126 84.2696 416.126 84.2696L434.872 137.191L450.251 124.045L485.162 150.225Z" fill="#6876AA"/>
<path d="M405.798 164.607C405.574 164.607 405.461 164.494 405.237 164.382C405.012 164.045 405.012 163.596 405.237 163.371L442.505 128.652C442.842 128.427 443.291 128.427 443.516 128.652C443.74 128.989 443.74 129.438 443.516 129.663L406.359 164.382C406.135 164.494 406.023 164.607 405.798 164.607Z" fill="#465884"/>
<path d="M403.778 153.258C401.42 153.258 399.287 152.921 397.94 152.022C397.042 151.461 396.481 150.562 396.369 149.551C396.257 148.764 396.593 147.977 397.155 147.416C400.971 144.045 419.269 148.315 421.289 148.764C421.626 148.876 421.85 149.101 421.85 149.438C421.85 149.775 421.626 150.112 421.289 150.112C420.952 150.337 410.962 153.258 403.778 153.258ZM403.104 147.528C400.859 147.528 399.063 147.753 398.277 148.539C398.053 148.764 397.94 149.101 397.94 149.438C398.053 150 398.277 150.449 398.838 150.899C402.094 153.034 412.197 151.124 418.258 149.663C413.207 148.427 407.257 147.528 403.104 147.528Z" fill="#465884"/>
</svg>
