<svg width="45" height="40" viewBox="0 0 45 40" fill="none" xmlns="http://www.w3.org/2000/svg">
<path d="M43.125 5H35V1.875C35 0.835938 34.1641 0 33.125 0H11.875C10.8359 0 10 0.835938 10 1.875V5H1.875C0.835938 5 0 5.83594 0 6.875V11.25C0 14.0391 1.75781 16.9062 4.83594 19.1172C7.29688 20.8906 10.2891 22.0156 13.4297 22.375C15.8828 26.4453 18.75 28.125 18.75 28.125V33.75H15C12.2422 33.75 10 35.3672 10 38.125V39.0625C10 39.5781 10.4219 40 10.9375 40H34.0625C34.5781 40 35 39.5781 35 39.0625V38.125C35 35.3672 32.7578 33.75 30 33.75H26.25V28.125C26.25 28.125 29.1172 26.4453 31.5703 22.375C34.7188 22.0156 37.7109 20.8906 40.1641 19.1172C43.2344 16.9062 45 14.0391 45 11.25V6.875C45 5.83594 44.1641 5 43.125 5ZM7.75781 15.0625C5.85156 13.6875 5 12.1562 5 11.25V10H10.0156C10.0938 12.5469 10.4688 14.7812 11.0156 16.7344C9.83594 16.3281 8.73438 15.7656 7.75781 15.0625ZM40 11.25C40 12.5078 38.6172 14.0703 37.2422 15.0625C36.2656 15.7656 35.1562 16.3281 33.9766 16.7344C34.5234 14.7812 34.8984 12.5469 34.9766 10H40V11.25Z" fill="#DB8454" fill-opacity="0.2"/>
<path d="M23.156 12.602C24.32 12.746 25.208 13.142 25.82 13.79C26.432 14.438 26.738 15.248 26.738 16.22C26.738 16.952 26.552 17.618 26.18 18.218C25.808 18.818 25.244 19.298 24.488 19.658C23.744 20.006 22.832 20.18 21.752 20.18C20.852 20.18 19.982 20.054 19.142 19.802C18.314 19.538 17.606 19.178 17.018 18.722L18.026 16.904C18.482 17.288 19.034 17.594 19.682 17.822C20.342 18.038 21.02 18.146 21.716 18.146C22.544 18.146 23.192 17.978 23.66 17.642C24.14 17.294 24.38 16.826 24.38 16.238C24.38 15.65 24.152 15.194 23.696 14.87C23.252 14.534 22.568 14.366 21.644 14.366H20.492V12.764L23.354 9.362H17.63V7.4H26.216V8.966L23.156 12.602Z" fill="#DB8454"/>
</svg>
