<svg width="24" height="30" viewBox="0 0 24 30" fill="none" xmlns="http://www.w3.org/2000/svg">
<path id="Vector" d="M21.4881 10.6511C23.1087 12.7443 23.9918 15.3147 23.9999 17.962C24.0081 20.6093 23.1407 23.1851 21.5329 25.2881C19.9251 27.3912 17.6671 28.9036 15.1105 29.5898C12.5539 30.276 9.84217 30.0976 7.39753 29.0822C4.95289 28.0668 2.91255 26.2716 1.59419 23.9759C0.275833 21.6802 -0.246551 19.013 0.108375 16.3896C0.463302 13.7662 1.67562 11.3337 3.55657 9.47096C5.43751 7.60823 7.88153 6.41977 10.5081 6.09063V3.00031H13.5081V6.09063C15.6981 6.36066 17.7081 7.23075 19.3581 8.52088L21.5481 6.33065L23.6781 8.46088L21.4881 10.6361V10.6511ZM12.0081 27.0028C14.395 27.0028 16.6842 26.0545 18.372 24.3665C20.0598 22.6785 21.0081 20.3891 21.0081 18.0019C21.0081 15.6147 20.0598 13.3252 18.372 11.6372C16.6842 9.94924 14.395 9.00093 12.0081 9.00093C9.62112 9.00093 7.33193 9.94924 5.64411 11.6372C3.95628 13.3252 3.00807 15.6147 3.00807 18.0019C3.00807 20.3891 3.95628 22.6785 5.64411 24.3665C7.33193 26.0545 9.62112 27.0028 12.0081 27.0028ZM7.50807 0H16.5081V3.00031H7.50807V0ZM15.1881 12.6913L17.3181 14.8215L12.0081 20.1021L9.89306 18.0019L15.1881 12.6913Z" fill="#FF8901"/>
</svg>
