<svg width="24" height="24" viewBox="0 0 24 24" fill="none" xmlns="http://www.w3.org/2000/svg">
<g id="24 / call / call-phone">
<path id="icon" fill-rule="evenodd" clip-rule="evenodd" d="M10.8565 8.33802C11.3746 7.63981 11.5604 6.90396 10.9744 6.25443C9.65949 4.41445 8.77515 3.27662 8.22044 2.72866C7.16589 1.68693 5.43112 1.82784 4.51779 2.72777C4.02723 3.21113 3.86116 3.37712 3.35747 3.88873C0.551816 6.69589 2.26285 12.6301 6.81139 17.1831C11.3589 21.7351 17.2926 23.4471 20.1041 20.634C20.5689 20.1859 20.9624 19.7921 21.2728 19.4641C22.1678 18.5181 22.3037 16.8598 21.2669 15.7825C20.7354 15.2302 19.6503 14.3886 17.7329 13.0171C17.1457 12.492 16.4494 12.6058 15.811 13.0246C15.504 13.226 15.2805 13.4298 14.8585 13.8522L14.0923 14.6188C13.9914 14.7198 12.621 14.0335 11.2907 12.702C9.95972 11.3697 9.2739 9.99918 9.37435 9.89874L10.1411 9.13155C10.275 8.99754 10.339 8.93266 10.4211 8.84639C10.5921 8.66666 10.7337 8.50356 10.8565 8.33802ZM15.5057 16.0331L16.2721 15.2662C16.5044 15.0338 16.6549 14.8909 16.7773 14.7923C18.457 15.9985 19.4297 16.757 19.8271 17.1698C20.0656 17.4177 20.0286 17.87 19.8212 18.0892C19.5342 18.3925 19.1613 18.7656 18.7037 19.2069C16.8857 21.0257 12.0959 19.6438 8.22513 15.7692C4.35315 11.8934 2.97188 7.10291 4.7762 5.29761C5.27786 4.7881 5.4368 4.62924 5.92035 4.15278C6.10166 3.97413 6.59552 3.93401 6.81608 4.15189C7.24314 4.57376 8.03534 5.58811 9.20071 7.21145C9.14038 7.28635 9.06503 7.37099 8.97333 7.46737C8.90603 7.5381 8.84996 7.59494 8.72738 7.71764L7.96136 8.48408C6.65821 9.78712 7.76802 12.0048 9.87697 14.1159C11.9845 16.2254 14.203 17.3365 15.5057 16.0331Z" fill="#3E80CE"/>
</g>
</svg>
