<svg width="40" height="40" viewBox="0 0 40 40" fill="none" xmlns="http://www.w3.org/2000/svg">
<g id="Group 23">
<circle id="Ellipse 5" cx="20" cy="20" r="20" fill="#3E80CE"/>
<g id="Group">
<g id="Group_2">
<path id="Vector" d="M30.7861 25.2135C30.7216 25.1055 30.3225 24.2385 28.4024 22.4563C26.3923 20.5902 26.6623 20.8932 29.0835 17.6665C30.5581 15.7013 31.1476 14.5012 30.9631 13.9882C30.7876 13.4992 29.703 13.6282 29.703 13.6282L26.0967 13.6492C26.0967 13.6492 25.8297 13.6132 25.6302 13.7317C25.4367 13.8487 25.3122 14.1187 25.3122 14.1187C25.3122 14.1187 24.7406 15.6398 23.9786 16.9329C22.372 19.6616 21.7284 19.8056 21.4659 19.6361C20.8554 19.2416 21.0084 18.049 21.0084 17.2029C21.0084 14.5583 21.4089 13.4557 20.2268 13.1707C19.8338 13.0761 19.5458 13.0131 18.5422 13.0026C17.2551 12.9891 16.1645 13.0071 15.548 13.3087C15.1369 13.5097 14.8204 13.9582 15.0139 13.9837C15.2524 14.0152 15.7925 14.1292 16.079 14.5193C16.4495 15.0218 16.436 16.1529 16.436 16.1529C16.436 16.1529 16.649 19.2656 15.9395 19.6526C15.452 19.9181 14.7844 19.3766 13.3518 16.8999C12.6182 15.6323 12.0632 14.2297 12.0632 14.2297C12.0632 14.2297 11.9567 13.9687 11.7662 13.8292C11.5352 13.6597 11.2111 13.6057 11.2111 13.6057L7.78189 13.6267C7.78189 13.6267 7.26735 13.6417 7.07834 13.8652C6.91033 14.0647 7.06484 14.4757 7.06484 14.4757C7.06484 14.4757 9.75004 20.7567 12.7893 23.9234C15.578 26.8262 18.7432 26.6356 18.7432 26.6356H20.1773C20.1773 26.6356 20.6108 26.5876 20.8314 26.3491C21.0354 26.1301 21.0279 25.7191 21.0279 25.7191C21.0279 25.7191 20.9994 23.7944 21.8934 23.5109C22.774 23.2319 23.9051 25.371 25.1037 26.1946C26.0097 26.8172 26.6983 26.6806 26.6983 26.6806L29.904 26.6356C29.904 26.6356 31.5811 26.5321 30.7861 25.2135Z" fill="black"/>
</g>
</g>
</g>
</svg>
