<svg width="146" height="62" viewBox="0 0 146 62" fill="none" xmlns="http://www.w3.org/2000/svg">
<path fill-rule="evenodd" clip-rule="evenodd" d="M146 62C146 62 145.749 46.272 127.535 43.7706C126.762 43.9006 125.376 43.6619 124.529 43.6619H21.4706C9.61181 43.6619 0 33.888 0 21.8301C0 9.77391 9.61181 0 21.4706 0H124.529C136.386 0 146 9.77391 146 21.8301C146 22.4233 145.97 23.0077 145.925 23.5885C145.968 23.8985 146 24.2228 146 24.5791V62Z" fill="#3E80CE"/>
<path d="M28.528 33.2879C26.8213 33.2879 25.232 33.1065 23.76 32.7439C22.3093 32.3599 21.1146 31.8372 20.176 31.1759C19.8133 30.8985 19.5466 30.6105 19.376 30.3119C19.2266 30.0132 19.152 29.6292 19.152 29.1599C19.152 28.5199 19.344 27.9652 19.728 27.4959C20.112 27.0265 20.56 26.7919 21.072 26.7919C21.3493 26.7919 21.616 26.8345 21.872 26.9199C22.128 27.0052 22.448 27.1652 22.832 27.3999C23.7066 27.8905 24.5706 28.2425 25.424 28.4559C26.2986 28.6692 27.28 28.7759 28.368 28.7759C29.6266 28.7759 30.576 28.5945 31.216 28.2319C31.8773 27.8479 32.208 27.2932 32.208 26.5679C32.208 26.0772 31.8986 25.6612 31.28 25.3199C30.6826 24.9572 29.5306 24.6052 27.824 24.2639C25.712 23.8159 24.0586 23.2825 22.864 22.6639C21.6693 22.0452 20.8266 21.3199 20.336 20.4879C19.8666 19.6345 19.632 18.6105 19.632 17.4159C19.632 16.0505 20.0373 14.8132 20.848 13.7039C21.6586 12.5945 22.768 11.7305 24.176 11.1119C25.6053 10.4719 27.2053 10.1519 28.976 10.1519C30.5333 10.1519 31.92 10.3225 33.136 10.6639C34.352 11.0052 35.4613 11.5385 36.464 12.2639C36.848 12.5412 37.1146 12.8399 37.264 13.1599C37.4346 13.4585 37.52 13.8319 37.52 14.2799C37.52 14.9199 37.328 15.4745 36.944 15.9439C36.5813 16.4132 36.144 16.6479 35.632 16.6479C35.3546 16.6479 35.0986 16.6159 34.864 16.5519C34.6293 16.4665 34.2986 16.2959 33.872 16.0399C33.7653 15.9759 33.456 15.8159 32.944 15.5599C32.4533 15.2825 31.8666 15.0692 31.184 14.9199C30.5226 14.7492 29.7973 14.6639 29.008 14.6639C27.92 14.6639 27.0453 14.8772 26.384 15.3039C25.7226 15.7092 25.392 16.2532 25.392 16.9359C25.392 17.3412 25.5093 17.6719 25.744 17.9279C25.9786 18.1839 26.416 18.4399 27.056 18.6959C27.696 18.9305 28.6453 19.1759 29.904 19.4319C31.952 19.8799 33.5626 20.4239 34.736 21.0639C35.9093 21.6825 36.7413 22.4079 37.232 23.2399C37.7226 24.0719 37.968 25.0532 37.968 26.1839C37.968 27.5919 37.5733 28.8399 36.784 29.9279C35.9946 30.9945 34.8853 31.8265 33.456 32.4239C32.048 32.9999 30.4053 33.2879 28.528 33.2879Z" fill="white"/>
<path d="M52.978 33.2879C50.674 33.2879 48.6686 32.8185 46.962 31.8799C45.2766 30.9199 43.9753 29.5759 43.058 27.8479C42.1406 26.0985 41.682 24.0505 41.682 21.7039C41.682 19.3572 42.1406 17.3199 43.058 15.5919C43.9753 13.8425 45.2766 12.4985 46.962 11.5599C48.6686 10.6212 50.674 10.1519 52.978 10.1519C55.282 10.1519 57.2766 10.6212 58.962 11.5599C60.6686 12.4985 61.97 13.8425 62.866 15.5919C63.7833 17.3199 64.242 19.3572 64.242 21.7039C64.242 24.0505 63.7833 26.0985 62.866 27.8479C61.9486 29.5759 60.6366 30.9199 58.93 31.8799C57.2446 32.8185 55.2606 33.2879 52.978 33.2879ZM52.978 28.7759C54.6846 28.7759 56.018 28.1785 56.978 26.9839C57.938 25.7679 58.418 24.0079 58.418 21.7039C58.418 19.3999 57.9273 17.6505 56.946 16.4559C55.986 15.2612 54.6633 14.6639 52.978 14.6639C51.2713 14.6639 49.938 15.2612 48.978 16.4559C48.018 17.6292 47.538 19.3785 47.538 21.7039C47.538 24.0292 48.018 25.7892 48.978 26.9839C49.938 28.1785 51.2713 28.7759 52.978 28.7759Z" fill="white"/>
<path d="M81.4527 11.2079C82.0074 10.5679 82.6581 10.2479 83.4047 10.2479C84.1087 10.2479 84.7381 10.5252 85.2927 11.0799C85.8687 11.6132 86.1567 12.2319 86.1567 12.9359C86.1567 13.5545 85.9221 14.1412 85.4527 14.6959L78.7327 22.4719V30.2799C78.7327 31.2185 78.4554 31.9439 77.9007 32.4559C77.3674 32.9465 76.6741 33.1919 75.8207 33.1919C74.9461 33.1919 74.2314 32.9465 73.6767 32.4559C73.1221 31.9439 72.8447 31.2185 72.8447 30.2799V22.4719L66.1887 14.6959C65.6981 14.1412 65.4527 13.5439 65.4527 12.9039C65.4527 12.1999 65.7301 11.5812 66.2847 11.0479C66.8394 10.5145 67.4687 10.2479 68.1727 10.2479C68.9194 10.2479 69.5701 10.5679 70.1247 11.2079L75.7887 17.9279L81.4527 11.2079Z" fill="white"/>
<path d="M91.9292 32.9999C91.0546 32.9999 90.3826 32.7652 89.9132 32.2959C89.4439 31.8265 89.2092 31.1439 89.2092 30.2479V13.1599C89.2092 12.2852 89.4652 11.5919 89.9772 11.0799C90.5106 10.5465 91.2252 10.2799 92.1212 10.2799C93.0386 10.2799 93.7639 10.5465 94.2972 11.0799C94.8306 11.5919 95.0972 12.2852 95.0972 13.1599V28.2319H102.457C104.313 28.2319 105.241 29.0319 105.241 30.6319C105.241 31.4425 105.007 32.0399 104.537 32.4239C104.089 32.8079 103.396 32.9999 102.457 32.9999H91.9292Z" fill="white"/>
<path d="M111.202 32.9999C110.327 32.9999 109.655 32.7652 109.186 32.2959C108.716 31.8265 108.482 31.1545 108.482 30.2799V13.1599C108.482 12.2852 108.716 11.6132 109.186 11.1439C109.655 10.6745 110.327 10.4399 111.202 10.4399H122.274C123.191 10.4399 123.884 10.6319 124.354 11.0159C124.823 11.3999 125.058 11.9545 125.058 12.6799C125.058 14.2159 124.13 14.9839 122.274 14.9839H114.21V19.2719H121.634C123.49 19.2719 124.418 20.0292 124.418 21.5439C124.418 22.2692 124.183 22.8239 123.714 23.2079C123.244 23.5919 122.551 23.7839 121.634 23.7839H114.21V28.4559H122.274C124.13 28.4559 125.058 29.2239 125.058 30.7599C125.058 31.4852 124.823 32.0399 124.354 32.4239C123.884 32.8079 123.191 32.9999 122.274 32.9999H111.202Z" fill="white"/>
</svg>
