<svg width="116" height="116" viewBox="0 0 116 116" fill="none" xmlns="http://www.w3.org/2000/svg">
<circle cx="58" cy="58" r="58" fill="#A6AFB9"/>
<path d="M73.3206 47.39C73.3206 43.1588 71.6048 39.3289 68.8351 36.5592C66.0623 33.7863 62.2324 32.0706 58.0011 32.0706C53.7699 32.0706 49.94 33.7863 47.1672 36.5592C44.3974 39.3289 42.6816 43.1588 42.6816 47.39C42.6816 51.6213 44.3974 55.4512 47.1672 58.2209C49.94 60.9938 53.7699 62.7095 58.0011 62.7095C62.2324 62.7095 66.0623 60.9938 68.8351 58.2209C71.6048 55.4512 73.3206 51.6213 73.3206 47.39Z" fill="white"/>
<path d="M39.6162 78.029C39.6162 81.0929 46.51 84.1568 57.9996 84.1568C68.7784 84.1568 76.383 81.0929 76.383 78.029C76.383 71.9012 69.1706 65.7734 57.9996 65.7734C46.51 65.7734 39.6162 71.9012 39.6162 78.029Z" fill="white"/>
</svg>
